<svg width="24" height="24" viewBox="0 0 24 24" fill="none" xmlns="http://www.w3.org/2000/svg">
<path d="M22 12C22 17.52 17.52 22 12 22C6.48 22 2 17.52 2 12C2 6.48 6.48 2 12 2" stroke="#292D32" stroke-width="1.5" stroke-linecap="round" stroke-linejoin="round"/>
<path d="M17.5776 2.90137V6.50658H21.1156" stroke="#292D32" stroke-width="1.5" stroke-linecap="round" stroke-linejoin="round"/>
<path d="M22.0001 2L17.5776 6.50651" stroke="#292D32" stroke-width="1.5" stroke-linecap="round" stroke-linejoin="round"/>
<path d="M8.74292 11.4497H15.2572" stroke="black" stroke-width="1.5" stroke-linecap="round" stroke-linejoin="round"/>
<path d="M8.74292 8.96313H15.2572" stroke="black" stroke-width="1.5" stroke-linecap="round" stroke-linejoin="round"/>
<path d="M10.5751 8.96313C11.2769 8.96313 11.95 9.24195 12.4463 9.73825C12.9426 10.2345 13.2215 10.9077 13.2215 11.6095C13.2215 12.3114 12.9426 12.9845 12.4463 13.4808C11.95 13.9771 11.2769 14.256 10.5751 14.256H8.74292L13.2215 18.3274" stroke="black" stroke-width="1.5" stroke-linecap="round" stroke-linejoin="round"/>
</svg>
