<svg width="24" height="24" viewBox="0 0 24 24" fill="none" xmlns="http://www.w3.org/2000/svg">
<path d="M17.21 6.40423C18.4 6.40423 19.37 5.43423 19.37 4.24423C19.37 3.05423 18.4 2.08423 17.21 2.08423C16.02 2.08423 15.05 3.05423 15.05 4.24423C15.05 5.43423 16.02 6.40423 17.21 6.40423Z" stroke="#292D32" stroke-width="1.5" stroke-linecap="round" stroke-linejoin="round"/>
<path d="M6.35775 14.1601C7.54775 14.1601 8.51775 13.1901 8.51775 12.0001C8.51775 10.8101 7.54775 9.84009 6.35775 9.84009C5.16775 9.84009 4.19775 10.8101 4.19775 12.0001C4.19775 13.1901 5.15775 14.1601 6.35775 14.1601Z" stroke="#292D32" stroke-width="1.5" stroke-linecap="round" stroke-linejoin="round"/>
<path d="M17.21 20.7277C18.4 20.7277 19.37 19.7577 19.37 18.5677C19.37 17.3777 18.4 16.4077 17.21 16.4077C16.02 16.4077 15.05 17.3777 15.05 18.5677C15.05 19.7577 16.02 20.7277 17.21 20.7277Z" stroke="#292D32" stroke-width="1.5" stroke-linecap="round" stroke-linejoin="round"/>
<line x1="9.81283" y1="9.13703" x2="13.5596" y2="6.11719" stroke="#292D32" stroke-linecap="round"/>
<line x1="0.5" y1="-0.5" x2="5.31225" y2="-0.5" transform="matrix(-0.778592 -0.627531 -0.627531 0.778592 13.6138 17.8074)" stroke="#292D32" stroke-linecap="round"/>
</svg>
