<svg width="60" height="60" viewBox="0 0 60 60" fill="none" xmlns="http://www.w3.org/2000/svg">
<path d="M55 18C47.113 17.179 36.953 12.672 30 6.672C23.016 12.672 12.887 17.179 5 18C5 34 6.569 50.301 30 58.188C53.432 50.301 55 34 55 18Z" stroke="black" stroke-width="2" stroke-miterlimit="10"/>
<path d="M39.387 33.389C38.973 33.803 38.43 34 37.886 34C37.344 34 36.801 33.802 36.388 33.388L28.613 25.613C28.198 25.198 28 24.656 28 24.114C28 23.571 28.197 23.027 28.611 22.613C29.022 22.201 29.56 22.003 30.1 22C30.647 21.997 31.195 22.195 31.612 22.612L39.387 30.387C39.804 30.804 40.002 31.352 39.999 31.899C39.997 32.438 39.799 32.978 39.387 33.389V33.389Z" stroke="black" stroke-width="2" stroke-miterlimit="10"/>
<path d="M36 33L26.707 42.293C26.254 42.746 25.641 43 25 43C24.359 43 23.746 42.746 23.293 42.293L19.707 38.707C19.254 38.254 19 37.641 19 37C19 36.359 19.254 35.746 19.707 35.293L29 26" stroke="black" stroke-width="2" stroke-miterlimit="10"/>
<path d="M17.418 44.582L21.5 40.5" stroke="black" stroke-width="2" stroke-miterlimit="10"/>
<path d="M33 24L37 20" stroke="black" stroke-width="2" stroke-miterlimit="10"/>
<path d="M38 29L42 25" stroke="black" stroke-width="2" stroke-miterlimit="10"/>
<path d="M34.412 17.412L44.574 27.574" stroke="black" stroke-width="2" stroke-miterlimit="10"/>
<path d="M23.563 36.563L21 34" stroke="black" stroke-width="2" stroke-miterlimit="10"/>
<path d="M26.585 33.585L24 31" stroke="black" stroke-width="2" stroke-miterlimit="10"/>
<path d="M35.688 6.75L38.229 2.271" stroke="black" stroke-width="2" stroke-miterlimit="10"/>
<path d="M45.422 11.578L48.594 8.40601" stroke="black" stroke-width="2" stroke-miterlimit="10"/>
<path d="M24.313 6.75L21.771 2.271" stroke="black" stroke-width="2" stroke-miterlimit="10"/>
<path d="M14.578 11.578L11.406 8.40601" stroke="black" stroke-width="2" stroke-miterlimit="10"/>
</svg>
