<svg width="24" height="24" viewBox="0 0 24 24" fill="none" xmlns="http://www.w3.org/2000/svg">
<path d="M1.50781 12C1.50781 6.20588 6.20588 1.50781 12 1.50781C17.7941 1.50781 22.4922 6.20588 22.4922 12C22.4922 17.7941 17.7941 22.4922 12 22.4922C6.20588 22.4922 1.50781 17.7941 1.50781 12ZM3.27344 12C3.27344 16.8184 7.18162 20.7266 12 20.7266C16.8184 20.7266 20.7266 16.8184 20.7266 12C20.7266 7.18162 16.8184 3.27344 12 3.27344C7.18162 3.27344 3.27344 7.18162 3.27344 12Z" fill="#F2F2F2" stroke="#F2F2F2" stroke-width="0.015625"/>
<path d="M11.7141 12.5062C11.407 12.9516 11.2477 13.4859 11.2477 14.0273V14.5312C11.2477 14.6344 11.332 14.7188 11.4352 14.7188H12.5602C12.6633 14.7188 12.7477 14.6344 12.7477 14.5312V13.9992C12.7489 13.7717 12.8186 13.5498 12.9478 13.3625C13.077 13.1752 13.2596 13.0312 13.4719 12.9492C14.8547 12.4172 15.7477 11.1984 15.7477 9.84375C15.75 8.92266 15.3469 8.0625 14.6156 7.42266C13.9125 6.80625 12.9844 6.46875 12 6.46875C11.0156 6.46875 10.0875 6.80859 9.38437 7.42266C8.65312 8.0625 8.25 8.92266 8.25 9.84375V10.0219C8.25 10.125 8.33438 10.2094 8.4375 10.2094H9.5625C9.66563 10.2094 9.75 10.125 9.75 10.0219V9.84375C9.75 8.81016 10.7602 7.96875 12 7.96875C13.2398 7.96875 14.25 8.81016 14.25 9.84375C14.25 10.5727 13.7344 11.2406 12.9352 11.5477C12.4383 11.7375 12.0164 12.0703 11.7141 12.5062ZM11.7141 12.5062L11.7205 12.5107M11.7141 12.5062L11.7205 12.5107C11.7205 12.5107 11.7205 12.5107 11.7205 12.5107M11.7205 12.5107C11.4144 12.9547 11.2555 13.4875 11.2555 14.0273V14.5312C11.2555 14.6301 11.3363 14.7109 11.4352 14.7109H12.5602C12.659 14.7109 12.7398 14.6301 12.7398 14.5312V13.9992V13.9992C12.7411 13.7701 12.8113 13.5467 12.9414 13.3581C13.0715 13.1695 13.2553 13.0245 13.4691 12.9419L13.4691 12.9419C14.8492 12.4109 15.7398 11.1948 15.7398 9.84375V9.84373C15.7422 8.92504 15.3401 8.06699 14.6105 7.42854L14.6105 7.42853C13.9089 6.81345 12.9826 6.47656 12 6.47656C11.0174 6.47656 10.0911 6.81579 9.38952 7.42854C8.65986 8.06699 8.25781 8.92505 8.25781 9.84375V10.0219C8.25781 10.1207 8.33869 10.2016 8.4375 10.2016H9.5625C9.66131 10.2016 9.74219 10.1207 9.74219 10.0219V9.84375C9.74219 8.80457 10.7572 7.96094 12 7.96094C13.2428 7.96094 14.2578 8.80457 14.2578 9.84375C14.2578 10.5766 13.7395 11.247 12.938 11.5549L12.9379 11.555C12.4426 11.7442 12.0219 12.076 11.7205 12.5107ZM11.3426 17.8136C11.1683 17.6393 11.0703 17.4028 11.0703 17.1562C11.0703 16.9097 11.1683 16.6732 11.3426 16.4989C11.517 16.3245 11.7534 16.2266 12 16.2266C12.2466 16.2266 12.483 16.3245 12.6574 16.4989C12.8317 16.6732 12.9297 16.9097 12.9297 17.1562C12.9297 17.4028 12.8317 17.6393 12.6574 17.8136C12.483 17.988 12.2466 18.0859 12 18.0859C11.7534 18.0859 11.517 17.988 11.3426 17.8136Z" fill="#F2F2F2" stroke="#F2F2F2" stroke-width="0.015625"/>
</svg>
