<svg width="100" height="100" viewBox="0 0 100 100" fill="none" xmlns="http://www.w3.org/2000/svg">
<path fill-rule="evenodd" clip-rule="evenodd" d="M57.6936 71.1377L56.4268 78.0348L71.4658 78.0348L72.7291 71.1377L63.4737 71.1377L57.6936 71.1377Z" fill="#F96D38"/>
<path fill-rule="evenodd" clip-rule="evenodd" d="M81.1939 30.6959L71.7589 30.6959L70.5347 37.593L79.8325 37.593L81.1939 30.6959Z" fill="#F96D38"/>
<path fill-rule="evenodd" clip-rule="evenodd" d="M50.9825 44.0112L52.0263 37.7434L64.2892 37.7434L65.5439 30.6498L56.4505 30.6498L61.4984 2.79347L13.4766 50.0092L44.6582 98.0992L49.3275 71.0255L39.8212 71.0255L39.3561 71.0435L39.3597 71.0255L39.3272 71.0255L40.5802 63.9301L50.5679 63.9301L50.5661 63.9481L50.5679 63.9481L50.5715 63.9247L68.4339 63.9247L69.5462 57.5345L51.6838 57.5345L53.0396 50.5435L85.4111 50.5435L86.5234 44.0112L50.9825 44.0112ZM45.3595 57.4895L36.248 57.4895L37.501 50.3941L46.6142 50.3941L45.3595 57.4895Z" fill="#F96D38"/>
</svg>
