<svg width="200" height="137" viewBox="0 0 200 137" fill="none" xmlns="http://www.w3.org/2000/svg">
<path d="M123.814 22.2028H40.5692C37.6814 22.1189 34.94 20.9127 32.927 18.8404C30.9141 16.7681 29.788 13.9928 29.788 11.1037C29.788 8.21469 30.9141 5.4394 32.927 3.36708C34.94 1.29476 37.6814 0.0886023 40.5692 0.0046854H123.814C125.299 -0.0384578 126.777 0.216711 128.162 0.755084C129.546 1.29346 130.808 2.10409 131.874 3.139C132.939 4.1739 133.786 5.41205 134.364 6.78013C134.943 8.14822 135.241 9.61843 135.241 11.1037C135.241 12.5891 134.943 14.0593 134.364 15.4274C133.786 16.7954 132.939 18.0336 131.874 19.0685C130.808 20.1034 129.546 20.914 128.162 21.4524C126.777 21.9908 125.299 22.2459 123.814 22.2028Z" fill="#ECEEF8"/>
<path d="M166.646 44.4008H52.4132C50.9285 44.4439 49.4503 44.1888 48.066 43.6504C46.6817 43.112 45.4195 42.3014 44.3541 41.2665C43.2886 40.2316 42.4417 38.9934 41.8633 37.6253C41.285 36.2573 40.987 34.7871 40.987 33.3017C40.987 31.8164 41.285 30.3462 41.8633 28.9781C42.4417 27.61 43.2886 26.3719 44.3541 25.337C45.4195 24.3021 46.6817 23.4915 48.066 22.9531C49.4503 22.4147 50.9285 22.1595 52.4132 22.2027H166.646C168.131 22.1595 169.609 22.4147 170.993 22.9531C172.377 23.4915 173.64 24.3021 174.705 25.337C175.771 26.3719 176.617 27.61 177.196 28.9781C177.774 30.3462 178.072 31.8164 178.072 33.3017C178.072 34.7871 177.774 36.2573 177.196 37.6253C176.617 38.9934 175.771 40.2316 174.705 41.2665C173.64 42.3014 172.377 43.112 170.993 43.6504C169.609 44.1888 168.131 44.4439 166.646 44.4008Z" fill="#ECEEF8"/>
<path d="M153.556 110.077H39.3136C36.4258 109.993 33.6844 108.787 31.6714 106.715C29.6584 104.642 28.5324 101.867 28.5324 98.9779C28.5324 96.0888 29.6584 93.3136 31.6714 91.2412C33.6844 89.1689 36.4258 87.9627 39.3136 87.8788H153.556C155.04 87.8357 156.519 88.0909 157.903 88.6292C159.287 89.1676 160.549 89.9782 161.615 91.0131C162.68 92.048 163.527 93.2862 164.106 94.6543C164.684 96.0224 164.982 97.4926 164.982 98.9779C164.982 100.463 164.684 101.933 164.106 103.301C163.527 104.67 162.68 105.908 161.615 106.943C160.549 107.978 159.287 108.788 157.903 109.327C156.519 109.865 155.04 110.12 153.556 110.077Z" fill="#ECEEF8"/>
<path d="M153.556 66.599H10.7812C7.89339 66.5151 5.15197 65.309 3.13899 63.2366C1.12602 61.1643 0 58.389 0 55.5C0 52.6109 1.12602 49.8356 3.13899 47.7633C5.15197 45.691 7.89339 44.4848 10.7812 44.4009H153.556C155.04 44.3578 156.519 44.6129 157.903 45.1513C159.287 45.6897 160.549 46.5003 161.615 47.5352C162.68 48.5701 163.527 49.8083 164.106 51.1764C164.684 52.5445 164.982 54.0147 164.982 55.5C164.982 56.9853 164.684 58.4555 164.106 59.8236C163.527 61.1917 162.68 62.4298 161.615 63.4647C160.549 64.4996 159.287 65.3103 157.903 65.8486C156.519 66.387 155.04 66.6422 153.556 66.599Z" fill="#ECEEF8"/>
<path d="M146.425 132.172H67.6492C64.7043 132.172 61.8801 131.002 59.7977 128.92C57.7154 126.837 56.5455 124.013 56.5455 121.068C56.5455 118.123 57.7154 115.299 59.7977 113.217C61.8801 111.134 64.7043 109.964 67.6492 109.964H146.425C149.37 109.964 152.194 111.134 154.276 113.217C156.359 115.299 157.529 118.123 157.529 121.068C157.529 124.013 156.359 126.837 154.276 128.92C152.194 131.002 149.37 132.172 146.425 132.172Z" fill="#ECEEF8"/>
<path d="M189.247 87.8788H52.4132C50.9285 87.922 49.4503 87.6668 48.066 87.1284C46.6817 86.5901 45.4195 85.7794 44.3541 84.7445C43.2886 83.7096 42.4417 82.4715 41.8633 81.1034C41.285 79.7353 40.987 78.2651 40.987 76.7798C40.987 75.2945 41.285 73.8242 41.8633 72.4562C42.4417 71.0881 43.2886 69.8499 44.3541 68.815C45.4195 67.7801 46.6817 66.9695 48.066 66.4311C49.4503 65.8927 50.9285 65.6376 52.4132 65.6807H189.219C192.107 65.7646 194.848 66.9708 196.861 69.0431C198.874 71.1154 200 73.8907 200 76.7798C200 79.6688 198.874 82.4441 196.861 84.5164C194.848 86.5887 192.107 87.7949 189.219 87.8788" fill="#ECEEF8"/>
<path d="M142.845 11.7363C142.039 11.7455 141.248 11.515 140.574 11.0738C139.899 10.6326 139.37 10.0008 139.055 9.25856C138.74 8.51634 138.653 7.69723 138.804 6.90531C138.956 6.11339 139.34 5.3844 139.906 4.81096C140.473 4.23753 141.198 3.84554 141.988 3.68479C142.778 3.52404 143.598 3.60179 144.344 3.90817C145.09 4.21454 145.728 4.7357 146.177 5.40544C146.626 6.07519 146.865 6.86327 146.865 7.66957C146.863 8.74574 146.435 9.77727 145.675 10.5391C144.915 11.301 143.884 11.7313 142.808 11.7363H142.845ZM142.808 6.11411C142.496 6.11225 142.19 6.20324 141.93 6.3755C141.67 6.54776 141.466 6.79352 141.346 7.08155C141.226 7.36957 141.194 7.68686 141.254 7.9931C141.315 8.29934 141.465 8.58069 141.686 8.80141C141.906 9.02213 142.188 9.17225 142.494 9.23269C142.8 9.29313 143.117 9.26117 143.405 9.14086C143.693 9.02055 143.939 8.81733 144.111 8.55702C144.284 8.29672 144.375 7.99107 144.373 7.67894C144.373 7.26942 144.214 6.87596 143.928 6.58205C143.643 6.28814 143.255 6.11692 142.845 6.10473L142.808 6.11411Z" fill="#818CC5"/>
<path d="M171.837 106.301C171.032 106.303 170.244 106.065 169.574 105.619C168.904 105.173 168.381 104.538 168.072 103.795C167.763 103.051 167.682 102.233 167.839 101.443C167.995 100.653 168.383 99.9278 168.952 99.3585C169.521 98.7892 170.247 98.4017 171.037 98.245C171.826 98.0884 172.645 98.1698 173.388 98.4787C174.132 98.7877 174.767 99.3104 175.213 99.9806C175.659 100.651 175.896 101.438 175.894 102.243C175.892 103.319 175.464 104.349 174.703 105.11C173.943 105.87 172.912 106.298 171.837 106.301ZM171.837 100.679C171.621 100.662 171.403 100.69 171.198 100.761C170.993 100.833 170.805 100.945 170.646 101.093C170.487 101.24 170.36 101.419 170.273 101.618C170.186 101.817 170.141 102.031 170.141 102.248C170.141 102.465 170.186 102.68 170.273 102.878C170.36 103.077 170.487 103.256 170.646 103.403C170.805 103.551 170.993 103.664 171.198 103.735C171.403 103.806 171.621 103.834 171.837 103.818C172.232 103.787 172.602 103.608 172.871 103.317C173.14 103.026 173.29 102.645 173.29 102.248C173.29 101.852 173.14 101.47 172.871 101.179C172.602 100.888 172.232 100.709 171.837 100.679Z" fill="#BFD7E2"/>
<path d="M70.301 136.548C69.4959 136.55 68.7084 136.313 68.0382 135.866C67.368 135.42 66.8453 134.785 66.5363 134.042C66.2274 133.298 66.146 132.48 66.3027 131.69C66.4593 130.9 66.8468 130.175 67.4161 129.606C67.9854 129.036 68.7109 128.649 69.5006 128.492C70.2903 128.336 71.1088 128.417 71.8522 128.726C72.5957 129.035 73.2307 129.558 73.6769 130.228C74.123 130.898 74.3602 131.685 74.3583 132.491C74.3583 133.567 73.9309 134.599 73.17 135.36C72.4091 136.12 71.3771 136.548 70.301 136.548ZM70.301 130.926C69.9915 130.926 69.689 131.018 69.4316 131.189C69.1743 131.361 68.9737 131.606 68.8553 131.892C68.7369 132.178 68.7059 132.492 68.7663 132.796C68.8266 133.099 68.9757 133.378 69.1945 133.597C69.4134 133.816 69.6922 133.965 69.9957 134.025C70.2993 134.086 70.6139 134.055 70.8999 133.936C71.1858 133.818 71.4302 133.617 71.6021 133.36C71.7741 133.103 71.8659 132.8 71.8659 132.491C71.8659 132.076 71.701 131.678 71.4075 131.384C71.1141 131.091 70.716 130.926 70.301 130.926Z" fill="#818CC5"/>
<path d="M34.5254 7.96937H32.136V5.57996H29.6435V7.96937H27.2541V10.4619H29.6435V12.8513H32.136V10.4619H34.5254V7.96937Z" fill="#818CC5"/>
<path d="M30.4681 79.3145H28.0787V76.925H25.5862V79.3145H23.1968V81.807H25.5862V84.1964H28.0787V81.807H30.4681V79.3145Z" fill="#818CC5"/>
<path d="M118.755 49.011C119.148 46.7371 119.429 44.632 119.598 42.6954L119.72 42.761C120.263 43.0702 121.285 43.9136 121.285 44.5601C121.285 45.2067 120.076 47.0713 118.755 49.011Z" fill="#F8F0BB"/>
<path d="M93.6516 78.2931H88.5074V83.4374H93.6516V78.2931Z" fill="#818CC5"/>
<path d="M100.08 78.2931H94.9354V83.4374H100.08V78.2931Z" fill="#818CC5"/>
<path d="M93.6516 84.6273H88.5074V89.7716H93.6516V84.6273Z" fill="#818CC5"/>
<path d="M100.08 84.6273H94.9354V89.7716H100.08V84.6273Z" fill="#818CC5"/>
<path fill-rule="evenodd" clip-rule="evenodd" d="M121.125 91.6832C118.457 96.4553 114.565 100.429 109.849 103.196C105.134 105.962 99.7654 107.42 94.2982 107.42C88.831 107.42 83.4628 105.962 78.7471 103.196C74.0314 100.429 70.139 96.4553 67.4712 91.6832L76.5978 85.6394C78.2537 88.9123 80.7846 91.6621 83.9093 93.5831C87.0341 95.504 90.6302 96.521 94.2982 96.521C97.9662 96.521 101.562 95.504 104.687 93.5831C107.812 91.6621 110.343 88.9123 111.999 85.6394L121.125 91.6832Z" fill="#818CC5"/>
<path fill-rule="evenodd" clip-rule="evenodd" d="M119.579 18.2392C121.083 18.2785 122.51 18.9118 123.548 20.0006C124.585 21.0894 125.15 22.5449 125.117 24.0487L124.255 58.9623L130.13 46.2375C130.449 45.5607 130.898 44.9533 131.451 44.45C132.005 43.9467 132.652 43.5573 133.356 43.3041C134.059 43.0509 134.806 42.9389 135.554 42.9743C136.301 43.0098 137.034 43.192 137.711 43.5107C138.387 43.8294 138.995 44.2783 139.498 44.8318C140.001 45.3852 140.391 46.0324 140.644 46.7363C140.897 47.4402 141.009 48.1871 140.974 48.9343C140.938 49.6816 140.756 50.4145 140.437 51.0913L126.045 81.5165L113.919 73.4862C113.228 69.2722 111.195 65.394 108.123 62.4279C105.051 59.4619 101.103 57.5664 96.8676 57.0232C92.632 56.4801 88.3341 57.3183 84.613 59.4132C80.8919 61.5082 77.9461 64.748 76.2136 68.6511C73.262 75.2759 62.9829 71.7152 66.1594 64.4251C68.9624 58.0035 73.8743 52.7316 80.082 49.4821C86.2896 46.2326 93.4209 45.2003 100.295 46.5561L91.787 28.3684C91.1495 27.0016 91.0812 25.4375 91.5969 24.0203C92.1127 22.6031 93.1703 21.4488 94.5371 20.8113C95.904 20.1739 97.4681 20.1055 98.8853 20.6213C100.303 21.137 101.457 22.1947 102.094 23.5615L113.235 47.3807L113.807 23.7676C113.851 22.2664 114.486 20.8434 115.574 19.8081C116.662 18.7728 118.115 18.2089 119.617 18.2392" fill="#818CC5"/>
<path fill-rule="evenodd" clip-rule="evenodd" d="M94.2982 71.1155L59.9563 93.8571L56.4424 88.5442L94.2982 63.4788L105.158 70.6657V66.9458H109.375V73.4581L132.154 88.5442L128.64 93.8571L94.2982 71.1155Z" fill="#F26A30"/>
<path d="M94.2795 109.646L95.7693 114.162L100.52 114.144L96.6876 116.955L98.1681 121.462L94.3169 118.688L90.4845 121.499L91.9369 116.974L88.0764 114.191L92.8271 114.172L94.2795 109.646Z" fill="#F26A30"/>
<path d="M109.759 107.435L111.249 111.951L116 111.932L112.167 114.743L113.657 119.25L109.797 116.477L105.964 119.288L107.417 114.762L103.556 111.979L108.307 111.96L109.759 107.435Z" fill="#F26A30"/>
<path d="M122.203 97.8019L123.693 102.318L128.443 102.29L124.611 105.101L126.091 109.618L122.24 106.835L118.408 109.646L119.851 105.12L116 102.346L120.75 102.328L122.203 97.8019Z" fill="#F26A30"/>
<path d="M67.4524 97.8019L68.9423 102.318L73.693 102.29L69.8606 105.101L71.3411 109.618L67.4899 106.835L63.6575 109.646L65.1099 105.12L61.2493 102.346L66 102.328L67.4524 97.8019Z" fill="#F26A30"/>
<path d="M78.7998 107.435L80.2897 111.951L85.0404 111.932L81.208 114.743L82.6885 119.25L78.8373 116.477L75.0049 119.288L76.4479 114.762L72.5967 111.979L77.3475 111.96L78.7998 107.435Z" fill="#F26A30"/>
</svg>
