<svg width="198" height="130" viewBox="0 0 198 130" fill="none" xmlns="http://www.w3.org/2000/svg">
<path d="M122.2 21.795H40.4801C39.0216 21.8392 37.569 21.5901 36.2086 21.0624C34.8481 20.5348 33.6075 19.7394 32.5602 18.7233C31.5128 17.7072 30.6802 16.4912 30.1116 15.1474C29.543 13.8035 29.25 12.3592 29.25 10.9C29.25 9.44081 29.543 7.99647 30.1116 6.65261C30.6802 5.30876 31.5128 4.09276 32.5602 3.07669C33.6075 2.06063 34.8481 1.2652 36.2086 0.737559C37.569 0.209918 39.0216 -0.0391924 40.4801 0.0050003H122.2C123.659 -0.0391924 125.111 0.209918 126.472 0.737559C127.832 1.2652 129.073 2.06063 130.12 3.07669C131.167 4.09276 132 5.30876 132.569 6.65261C133.137 7.99647 133.43 9.44081 133.43 10.9C133.43 12.3592 133.137 13.8035 132.569 15.1474C132 16.4912 131.167 17.7072 130.12 18.7233C129.073 19.7394 127.832 20.5348 126.472 21.0624C125.111 21.5901 123.659 21.8392 122.2 21.795Z" fill="#ECEEF8"/>
<path d="M164.25 43.545H52.1001C50.6687 43.545 49.2513 43.2631 47.9288 42.7153C46.6064 42.1675 45.4048 41.3646 44.3926 40.3525C43.3805 39.3403 42.5776 38.1387 42.0298 36.8162C41.482 35.4938 41.2001 34.0764 41.2001 32.645C41.2001 31.2136 41.482 29.7962 42.0298 28.4737C42.5776 27.1513 43.3805 25.9497 44.3926 24.9375C45.4048 23.9254 46.6064 23.1225 47.9288 22.5747C49.2513 22.0269 50.6687 21.745 52.1001 21.745H164.25C167.141 21.745 169.913 22.8934 171.958 24.9375C174.002 26.9817 175.15 29.7541 175.15 32.645C175.15 35.5359 174.002 38.3083 171.958 40.3525C169.913 42.3966 167.141 43.545 164.25 43.545Z" fill="#ECEEF8"/>
<path d="M151.39 108.015H39.2401C36.4077 107.929 33.7201 106.744 31.7469 104.71C29.7738 102.676 28.6702 99.9537 28.6702 97.12C28.6702 94.2863 29.7738 91.564 31.7469 89.5301C33.7201 87.4963 36.4077 86.3108 39.2401 86.225H151.39C152.849 86.1808 154.301 86.4299 155.662 86.9575C157.022 87.4852 158.263 88.2806 159.31 89.2967C160.357 90.3127 161.19 91.5287 161.759 92.8726C162.327 94.2164 162.62 95.6608 162.62 97.12C162.62 98.5792 162.327 100.024 161.759 101.367C161.19 102.711 160.357 103.927 159.31 104.943C158.263 105.959 157.022 106.755 155.662 107.282C154.301 107.81 152.849 108.059 151.39 108.015Z" fill="#ECEEF8"/>
<path d="M151.39 65.335H11.2301C9.77159 65.3792 8.31904 65.1301 6.95858 64.6025C5.59812 64.0748 4.35746 63.2794 3.31015 62.2633C2.26283 61.2473 1.43019 60.0313 0.861588 58.6874C0.292985 57.3436 0 55.8992 0 54.44C0 52.9808 0.292985 51.5365 0.861588 50.1927C1.43019 48.8488 2.26283 47.6328 3.31015 46.6167C4.35746 45.6007 5.59812 44.8052 6.95858 44.2776C8.31904 43.75 9.77159 43.5008 11.2301 43.545H151.39C152.849 43.5008 154.301 43.75 155.662 44.2776C157.022 44.8052 158.263 45.6007 159.31 46.6167C160.357 47.6328 161.19 48.8488 161.759 50.1927C162.327 51.5365 162.62 52.9808 162.62 54.44C162.62 55.8992 162.327 57.3436 161.759 58.6874C161.19 60.0313 160.357 61.2473 159.31 62.2633C158.263 63.2794 157.022 64.0748 155.662 64.6025C154.301 65.1301 152.849 65.3792 151.39 65.335Z" fill="#ECEEF8"/>
<path d="M144.4 129.705H67.0601C64.1693 129.705 61.3968 128.557 59.3527 126.512C57.3085 124.468 56.1601 121.696 56.1601 118.805C56.1601 115.914 57.3085 113.142 59.3527 111.098C61.3968 109.053 64.1693 107.905 67.0601 107.905H144.4C147.291 107.905 150.063 109.053 152.108 111.098C154.152 113.142 155.3 115.914 155.3 118.805C155.3 121.696 154.152 124.468 152.108 126.512C150.063 128.557 147.291 129.705 144.4 129.705Z" fill="#ECEEF8"/>
<path d="M186.43 86.225H52.1001C49.2092 86.225 46.4368 85.0767 44.3926 83.0325C42.3485 80.9884 41.2001 78.2159 41.2001 75.3251C41.2001 72.4342 42.3485 69.6617 44.3926 67.6176C46.4368 65.5734 49.2092 64.425 52.1001 64.425H186.43C189.321 64.425 192.093 65.5734 194.138 67.6176C196.182 69.6617 197.33 72.4342 197.33 75.3251C197.33 78.2159 196.182 80.9884 194.138 83.0325C192.093 85.0767 189.321 86.225 186.43 86.225Z" fill="#ECEEF8"/>
<path d="M30.5501 77.795H28.2101V75.4451H25.7601V77.795H23.4101V80.245H25.7601V82.5851H28.2101V80.245H30.5501V77.795ZM169.34 104.285C168.549 104.285 167.776 104.05 167.118 103.611C166.46 103.171 165.947 102.547 165.645 101.816C165.342 101.085 165.263 100.281 165.417 99.5047C165.571 98.7288 165.952 98.016 166.512 97.4566C167.071 96.8972 167.784 96.5163 168.56 96.3619C169.336 96.2076 170.14 96.2868 170.871 96.5895C171.602 96.8923 172.226 97.405 172.666 98.0628C173.106 98.7206 173.34 99.4939 173.34 100.285C173.343 100.812 173.241 101.334 173.041 101.822C172.842 102.31 172.547 102.753 172.176 103.126C171.804 103.5 171.362 103.796 170.875 103.999C170.389 104.201 169.867 104.305 169.34 104.305V104.285ZM169.34 98.765C169.036 98.765 168.738 98.8554 168.485 99.0246C168.231 99.1938 168.034 99.4343 167.917 99.7157C167.801 99.9971 167.77 100.307 167.83 100.605C167.889 100.904 168.036 101.179 168.251 101.394C168.467 101.609 168.741 101.756 169.04 101.815C169.338 101.875 169.648 101.844 169.929 101.728C170.211 101.611 170.451 101.414 170.621 101.161C170.79 100.907 170.88 100.61 170.88 100.305C170.872 99.9018 170.707 99.5178 170.419 99.2354C170.131 98.9531 169.743 98.795 169.34 98.795V98.765ZM34.5401 7.79505H32.1901V5.42505H29.7401V7.79505H27.4001V10.245H29.7401V12.585H32.1901V10.225H34.5401V7.79505Z" fill="#818CC5"/>
<path d="M117.21 48.065C117.6 45.825 117.87 43.765 118.04 41.865L118.16 41.935C118.69 42.235 119.69 43.065 119.69 43.695C119.071 45.2601 118.236 46.731 117.21 48.065Z" fill="#F8F0BB"/>
<path d="M81.0301 43.715C81.0301 43.245 81.5601 42.715 82.0301 42.255C82.1401 43.955 82.3101 45.545 82.5001 46.915C81.8354 45.9308 81.323 44.852 80.9801 43.715" fill="#F8F0BB"/>
<path fill-rule="evenodd" clip-rule="evenodd" d="M113.46 80.0549C106.81 92.5749 92.4601 101.235 75.8401 101.235C52.8401 101.235 34.2801 82.4249 34.2801 64.3649C34.2801 46.3049 44.1401 35.9749 59.8301 30.6949C59.1601 31.0149 59.9801 30.5349 59.8301 30.8549L56.5601 36.7949L60.1401 40.4849L72.4901 48.3349L73.8301 52.6649L72.4501 54.6649L74.6401 56.6649L77.4101 59.7849L74.6401 68.0949L82.4901 81.7149L96.2701 86.785C96.2701 86.785 110.01 82.0349 113.42 80.1249" fill="#B5BFE1"/>
<path fill-rule="evenodd" clip-rule="evenodd" d="M74.4301 28.375L76.5201 35.035H80.6801L84.3701 41.035V36.425L92.2201 34.005V30.195C92.2201 30.195 94.9901 29.495 100.76 29.965C106.53 30.435 116.46 43.115 117.15 56.275C117.84 69.435 114.95 79.045 113.46 80.055L102.83 87.205H95.6401L81.8301 82.135L73.9801 68.515L76.7501 60.205L73.9801 57.085L71.7901 55.085L73.1701 53.085L71.8301 48.795L67.5601 45.675L59.4801 40.945L55.8301 37.235L59.0601 31.345C60.1401 29.345 72.3401 27.055 74.4001 28.345" fill="#818CC5"/>
<path fill-rule="evenodd" clip-rule="evenodd" d="M52.1901 45.165C56.4101 45.165 58.8001 51.635 57.5401 59.615C56.2801 67.595 51.8301 74.055 47.6301 74.055C43.4301 74.055 41.0201 67.595 42.2801 59.615C43.5401 51.635 47.9801 45.165 52.1901 45.165Z" fill="white"/>
<path fill-rule="evenodd" clip-rule="evenodd" d="M141.21 30.515C158.62 37.385 168.28 54.735 162.89 70.145C157.31 86.145 137.66 93.975 119.02 87.665C117.67 87.205 116.36 86.665 115.09 86.115L126.55 87.325L133.09 80.195L143.77 74.395L141.15 71.395L149.38 61.795L151.94 59.725L147.02 56.495L146.51 49.405L143.03 44.405L144.57 38.065L141.21 30.515Z" fill="#B5BFE1"/>
<path fill-rule="evenodd" clip-rule="evenodd" d="M113.49 85.625L113.68 82.815L116.13 80.065L119.39 78.175L118.13 74.915L119.2 72.845L117.7 70.955L121.98 65.955C123.67 63.955 125.14 63.855 125.14 63.855L127.35 64.005L132.88 61.005L138.2 52.745L138.4 38.355L137.69 36.795L140.57 35.285L139.83 31.415L140.83 30.145L144.83 38.145L143.28 44.485L146.76 49.485L147.28 56.575L152.19 59.805L149.56 61.795L141.34 71.395L143.95 74.395L133.27 80.195L126.87 87.395L113.49 85.625Z" fill="#818CC5"/>
<path d="M131.64 46.235L116.94 46.445L117.35 75.8949L132.05 75.695L131.64 46.235Z" fill="#F26A30"/>
<path d="M108.16 46.5149L113.5 46.445L113.92 75.8949L108.57 75.9749L108.16 46.5149Z" fill="#F26A30"/>
<path d="M90.4401 76.2449L90.0201 46.7949L104.72 46.5849L105.14 76.0449L90.4401 76.2449Z" fill="#F26A30"/>
<path d="M108.02 36.875L113.36 36.7949L113.48 44.9049L108.13 44.985L108.02 36.875Z" fill="#F26A30"/>
<path d="M86.9401 45.2449L86.8301 37.1449L104.58 36.8849L104.7 44.9949L86.9401 45.2449Z" fill="#F26A30"/>
<path d="M135.05 44.5449L116.92 44.7949L116.83 36.7149L134.94 36.4349L135.05 44.5449Z" fill="#F26A30"/>
<path d="M119.11 22.125C117.721 23.2979 116.57 24.7272 115.72 26.335V26.3649C114.912 27.8329 114.21 29.3568 113.62 30.9249C113.32 31.7149 113.06 32.5149 112.83 33.3249C112.71 33.7349 112.61 34.1349 112.52 34.5649C112.44 34.7749 112.44 34.985 112.44 35.205C112.421 35.3275 112.421 35.4524 112.44 35.5749C112.453 35.661 112.491 35.7412 112.55 35.805C112.594 35.8499 112.649 35.8812 112.71 35.8949H112.87C113.695 35.7458 114.51 35.5454 115.31 35.2949C116.11 35.0549 116.91 34.8049 117.7 34.5049C119.314 33.9365 120.877 33.2305 122.37 32.3949C123.142 31.9445 123.875 31.4293 124.56 30.8549C125.317 30.2354 125.963 29.4915 126.47 28.655C126.752 28.1754 126.961 27.6563 127.09 27.1149C127.232 26.5223 127.259 25.9079 127.17 25.305C127.08 24.7114 126.883 24.1389 126.59 23.6149C126.454 23.3673 126.301 23.13 126.13 22.9049C126.053 22.7911 125.966 22.6841 125.87 22.585L125.75 22.4349L125.67 22.345C125.251 21.9012 124.757 21.5354 124.21 21.265C123.586 20.9701 122.899 20.8327 122.21 20.8649C121.601 20.8984 121.003 21.0477 120.45 21.305C119.973 21.5251 119.523 21.8003 119.11 22.125Z" fill="#F26A30"/>
</svg>
