<svg width="198" height="139" viewBox="0 0 198 139" fill="none" xmlns="http://www.w3.org/2000/svg">
<path d="M122.41 26.35H40.6098C37.7163 26.35 34.9413 25.2006 32.8952 23.1546C30.8492 21.1085 29.6998 18.3335 29.6998 15.44C29.6998 12.5465 30.8492 9.77152 32.8952 7.72549C34.9413 5.67947 37.7163 4.53003 40.6098 4.53003H122.41C125.303 4.53003 128.078 5.67947 130.124 7.72549C132.17 9.77152 133.32 12.5465 133.32 15.44C133.32 18.3335 132.17 21.1085 130.124 23.1546C128.078 25.2006 125.303 26.35 122.41 26.35Z" fill="#ECEEF8"/>
<path d="M164.49 48.16H52.2398C49.4047 48.0741 46.7146 46.8876 44.7396 44.8518C42.7646 42.8161 41.66 40.0913 41.66 37.255C41.66 34.4186 42.7646 31.6938 44.7396 29.6581C46.7146 27.6224 49.4047 26.4358 52.2398 26.35H164.49C165.95 26.3058 167.403 26.5551 168.765 27.0832C170.127 27.6114 171.369 28.4075 172.417 29.4245C173.465 30.4415 174.299 31.6586 174.868 33.0037C175.437 34.3488 175.73 35.7944 175.73 37.255C175.73 38.7155 175.437 40.1611 174.868 41.5062C174.299 42.8513 173.465 44.0684 172.417 45.0854C171.369 46.1024 170.127 46.8986 168.765 47.4267C167.403 47.9548 165.95 48.2042 164.49 48.16Z" fill="#ECEEF8"/>
<path d="M151.63 112.69H39.3797C37.9199 112.734 36.466 112.485 35.1043 111.957C33.7426 111.429 32.5008 110.632 31.4526 109.615C30.4043 108.598 29.5709 107.381 29.0018 106.036C28.4327 104.691 28.1395 103.246 28.1395 101.785C28.1395 100.324 28.4327 98.8788 29.0018 97.5337C29.5709 96.1887 30.4043 94.9716 31.4526 93.9546C32.5008 92.9376 33.7426 92.1414 35.1043 91.6133C36.466 91.0851 37.9199 90.8358 39.3797 90.88H151.63C153.09 90.8358 154.543 91.0851 155.905 91.6133C157.267 92.1414 158.509 92.9376 159.557 93.9546C160.605 94.9716 161.439 96.1887 162.008 97.5337C162.577 98.8788 162.87 100.324 162.87 101.785C162.87 103.246 162.577 104.691 162.008 106.036C161.439 107.381 160.605 108.598 159.557 109.615C158.509 110.632 157.267 111.429 155.905 111.957C154.543 112.485 153.09 112.734 151.63 112.69Z" fill="#ECEEF8"/>
<path d="M151.63 69.97H11.3397C8.50472 69.8842 5.81457 68.6976 3.83958 66.6619C1.86459 64.6262 0.76001 61.9014 0.76001 59.065C0.76001 56.2287 1.86459 53.5039 3.83958 51.4682C5.81457 49.4324 8.50472 48.2459 11.3397 48.16H151.63C153.09 48.1158 154.543 48.3652 155.905 48.8933C157.267 49.4214 158.509 50.2176 159.557 51.2346C160.605 52.2516 161.439 53.4687 162.008 54.8138C162.577 56.1589 162.87 57.6045 162.87 59.065C162.87 60.5255 162.577 61.9712 162.008 63.3163C161.439 64.6614 160.605 65.8785 159.557 66.8955C158.509 67.9125 157.267 68.7086 155.905 69.2368C154.543 69.7649 153.09 70.0142 151.63 69.97Z" fill="#ECEEF8"/>
<path d="M144.63 134.41H67.2197C64.3262 134.41 61.5512 133.261 59.5052 131.215C57.4592 129.168 56.3098 126.393 56.3098 123.5C56.3098 120.606 57.4592 117.831 59.5052 115.785C61.5512 113.739 64.3262 112.59 67.2197 112.59H144.63C147.523 112.59 150.298 113.739 152.344 115.785C154.39 117.831 155.54 120.606 155.54 123.5C155.54 126.393 154.39 129.168 152.344 131.215C150.298 133.261 147.523 134.41 144.63 134.41Z" fill="#ECEEF8"/>
<path d="M186.7 90.8801H52.2397C49.3462 90.8801 46.5712 89.7306 44.5252 87.6846C42.4792 85.6386 41.3297 82.8636 41.3297 79.9701C41.3297 77.0765 42.4792 74.3015 44.5252 72.2555C46.5712 70.2095 49.3462 69.0601 52.2397 69.0601H186.7C189.593 69.0601 192.368 70.2095 194.414 72.2555C196.46 74.3015 197.61 77.0765 197.61 79.9701C197.61 82.8636 196.46 85.6386 194.414 87.6846C192.368 89.7306 189.593 90.8801 186.7 90.8801Z" fill="#ECEEF8"/>
<path d="M141.1 16.0601C140.309 16.0601 139.535 15.8255 138.877 15.3859C138.22 14.9464 137.707 14.3217 137.404 13.5908C137.101 12.8599 137.022 12.0556 137.177 11.2797C137.331 10.5038 137.712 9.79104 138.271 9.23163C138.831 8.67222 139.543 8.29126 140.319 8.13692C141.095 7.98258 141.9 8.06179 142.63 8.36454C143.361 8.66729 143.986 9.17998 144.426 9.83778C144.865 10.4956 145.1 11.2689 145.1 12.0601C145.1 13.1209 144.678 14.1383 143.928 14.8885C143.178 15.6386 142.161 16.0601 141.1 16.0601ZM141.1 10.5301C140.795 10.5301 140.497 10.6204 140.244 10.7896C139.991 10.9588 139.794 11.1993 139.677 11.4807C139.56 11.7621 139.53 12.0718 139.589 12.3705C139.649 12.6692 139.795 12.9436 140.011 13.159C140.226 13.3744 140.501 13.521 140.799 13.5805C141.098 13.6399 141.408 13.6094 141.689 13.4928C141.97 13.3763 142.211 13.1789 142.38 12.9256C142.549 12.6724 142.64 12.3746 142.64 12.0701C142.64 11.6616 142.477 11.2699 142.189 10.9811C141.9 10.6923 141.508 10.5301 141.1 10.5301Z" fill="#818CC5"/>
<path d="M183.02 100.83C182.229 100.83 181.455 100.595 180.797 100.156C180.14 99.7163 179.627 99.0916 179.324 98.3607C179.021 97.6298 178.942 96.8255 179.097 96.0496C179.251 95.2737 179.632 94.5609 180.191 94.0015C180.751 93.4421 181.463 93.0612 182.239 92.9068C183.015 92.7525 183.82 92.8317 184.55 93.1344C185.281 93.4372 185.906 93.9499 186.346 94.6077C186.785 95.2655 187.02 96.0388 187.02 96.83C187.02 97.8908 186.598 98.9082 185.848 99.6584C185.098 100.409 184.081 100.83 183.02 100.83ZM183.02 95.3C182.715 95.3 182.417 95.3903 182.164 95.5595C181.911 95.7287 181.714 95.9692 181.597 96.2506C181.48 96.532 181.45 96.8417 181.509 97.1404C181.569 97.4391 181.715 97.7135 181.931 97.9289C182.146 98.1443 182.421 98.291 182.719 98.3504C183.018 98.4098 183.328 98.3793 183.609 98.2627C183.89 98.1462 184.131 97.9488 184.3 97.6955C184.469 97.4423 184.56 97.1445 184.56 96.84C184.56 96.4315 184.397 96.0398 184.109 95.751C183.82 95.4622 183.428 95.3 183.02 95.3Z" fill="#BFD7E2"/>
<path d="M69.8198 138.7C69.0286 138.7 68.2553 138.465 67.5975 138.026C66.9397 137.586 66.427 136.962 66.1242 136.231C65.8215 135.5 65.7423 134.696 65.8966 133.92C66.051 133.144 66.4319 132.431 66.9913 131.872C67.5507 131.312 68.2635 130.931 69.0394 130.777C69.8153 130.622 70.6196 130.702 71.3505 131.004C72.0814 131.307 72.7061 131.82 73.1456 132.478C73.5852 133.135 73.8198 133.909 73.8198 134.7C73.8198 135.761 73.3983 136.778 72.6482 137.528C71.898 138.279 70.8806 138.7 69.8198 138.7ZM69.8198 133.17C69.5156 133.172 69.2189 133.264 68.9669 133.434C68.715 133.605 68.5192 133.846 68.4041 134.128C68.2891 134.409 68.26 134.718 68.3206 135.016C68.3811 135.315 68.5286 135.588 68.7443 135.802C68.9601 136.017 69.2345 136.162 69.533 136.221C69.8314 136.28 70.1406 136.249 70.4214 136.132C70.7022 136.015 70.9421 135.818 71.1109 135.564C71.2797 135.311 71.3698 135.014 71.3698 134.71C71.3698 134.507 71.3296 134.306 71.2516 134.118C71.1736 133.931 71.0592 133.761 70.9152 133.617C70.7711 133.474 70.6002 133.361 70.4122 133.284C70.2242 133.208 70.0228 133.169 69.8198 133.17Z" fill="#818CC5"/>
<path d="M82.0198 8C81.2287 8 80.4553 7.76541 79.7975 7.32588C79.1397 6.88635 78.627 6.26164 78.3243 5.53074C78.0215 4.79983 77.9423 3.99556 78.0966 3.21964C78.251 2.44372 78.6319 1.73099 79.1913 1.17158C79.7508 0.612166 80.4635 0.231202 81.2394 0.0768607C82.0153 -0.0774802 82.8196 0.00173312 83.5505 0.304484C84.2814 0.607234 84.9061 1.11992 85.3457 1.77772C85.7852 2.43552 86.0198 3.20888 86.0198 4C86.0198 5.06087 85.5984 6.07828 84.8482 6.82843C84.0981 7.57857 83.0806 8 82.0198 8ZM82.0198 2.47C81.7152 2.47 81.4175 2.56032 81.1642 2.72954C80.911 2.89876 80.7136 3.13927 80.597 3.42067C80.4804 3.70207 80.4499 4.01171 80.5094 4.31044C80.5688 4.60917 80.7155 4.88357 80.9308 5.09895C81.1462 5.31432 81.4206 5.46099 81.7193 5.52041C82.0181 5.57983 82.3277 5.54934 82.6091 5.43278C82.8905 5.31622 83.131 5.11883 83.3002 4.86558C83.4695 4.61233 83.5598 4.31458 83.5598 4.01C83.5598 3.60157 83.3975 3.20986 83.1087 2.92106C82.8199 2.63225 82.4282 2.47 82.0198 2.47Z" fill="#818CC5"/>
<path d="M34.6697 12.36H32.3297V10.01H29.8697V12.36H27.5297V14.81H29.8697V17.16H32.3297V14.81H34.6697V12.36Z" fill="#818CC5"/>
<path d="M30.6897 82.46H28.3397V80.11H25.8897V82.46H23.5397V84.91H25.8897V87.26H28.3397V84.91H30.6897V82.46Z" fill="#818CC5"/>
<path d="M81.1998 48.33C81.1998 47.86 81.7298 47.33 82.2598 46.87C82.3598 48.58 82.5298 50.16 82.7198 51.53C82.0576 50.5444 81.5453 49.466 81.1998 48.33Z" fill="#F8F0BB"/>
<path d="M116.07 39.5599H146.34C146.646 39.56 146.939 39.4391 147.156 39.2237C147.374 39.0084 147.497 38.7159 147.5 38.4099V21.2299C147.5 20.9223 147.378 20.6272 147.16 20.4097C146.942 20.1922 146.647 20.0699 146.34 20.0699H116.07C115.918 20.0699 115.767 20.1 115.627 20.1584C115.487 20.2168 115.36 20.3025 115.253 20.4103C115.146 20.5182 115.062 20.6461 115.004 20.7868C114.947 20.9275 114.918 21.0781 114.92 21.2299V38.4099C114.918 38.5618 114.947 38.7124 115.004 38.8531C115.062 38.9938 115.146 39.1217 115.253 39.2296C115.36 39.3374 115.487 39.423 115.627 39.4815C115.767 39.5399 115.918 39.57 116.07 39.57" fill="#B5BFE1"/>
<path d="M147.5 23.75H114.92V27.11H147.5V23.75Z" fill="#818CC5"/>
<path d="M140.02 35.8201H144.81C144.957 35.82 145.097 35.8777 145.202 35.9805C145.307 36.0834 145.367 36.2233 145.37 36.3701C145.37 36.4431 145.355 36.5155 145.327 36.5829C145.299 36.6503 145.257 36.7113 145.205 36.7626C145.153 36.8138 145.091 36.8541 145.023 36.8811C144.955 36.9081 144.883 36.9214 144.81 36.9201H140.02C139.874 36.9201 139.734 36.8621 139.631 36.759C139.528 36.6558 139.47 36.5159 139.47 36.3701C139.47 36.2242 139.528 36.0843 139.631 35.9812C139.734 35.878 139.874 35.8201 140.02 35.8201Z" fill="white"/>
<path d="M132.67 35.8199H137.46C137.536 35.8183 137.612 35.8328 137.683 35.8622C137.754 35.8917 137.817 35.9356 137.87 35.9912C137.923 36.0467 137.963 36.1127 137.989 36.1848C138.015 36.2569 138.025 36.3336 138.02 36.4099C138.02 36.5558 137.962 36.6957 137.859 36.7988C137.756 36.902 137.616 36.9599 137.47 36.9599H132.68C132.607 36.9613 132.535 36.948 132.468 36.9208C132.4 36.8937 132.339 36.8532 132.288 36.8019C132.236 36.7505 132.196 36.6894 132.169 36.622C132.142 36.5547 132.128 36.4825 132.13 36.4099C132.13 36.2641 132.188 36.1242 132.291 36.021C132.394 35.9179 132.534 35.8599 132.68 35.8599" fill="white"/>
<path d="M125.3 35.8201H130.09C130.236 35.8201 130.376 35.878 130.479 35.9812C130.582 36.0843 130.64 36.2242 130.64 36.3701C130.641 36.4427 130.628 36.5148 130.601 36.5821C130.574 36.6495 130.533 36.7106 130.482 36.762C130.43 36.8133 130.369 36.8538 130.302 36.881C130.234 36.9081 130.162 36.9214 130.09 36.9201H125.3C125.154 36.9201 125.014 36.8621 124.911 36.759C124.808 36.6558 124.75 36.5159 124.75 36.3701C124.75 36.2242 124.808 36.0843 124.911 35.9812C125.014 35.878 125.154 35.8201 125.3 35.8201Z" fill="#CCEBF4"/>
<path d="M117.93 35.8201H122.72C122.867 35.82 123.008 35.8777 123.112 35.9805C123.217 36.0834 123.277 36.2233 123.28 36.3701C123.28 36.4431 123.265 36.5155 123.237 36.5829C123.209 36.6503 123.167 36.7113 123.115 36.7626C123.063 36.8138 123.001 36.8541 122.933 36.8811C122.865 36.9081 122.793 36.9214 122.72 36.9201H117.93C117.784 36.9201 117.644 36.8621 117.541 36.759C117.438 36.6558 117.38 36.5159 117.38 36.3701C117.38 36.2242 117.438 36.0843 117.541 35.9812C117.644 35.878 117.784 35.8201 117.93 35.8201Z" fill="#CCEBF4"/>
<path d="M145.02 21.0601C145.182 21.0601 145.337 21.1243 145.451 21.2387C145.565 21.3531 145.63 21.5083 145.63 21.6701V21.8901C145.611 22.0371 145.539 22.1723 145.428 22.2702C145.316 22.3681 145.173 22.4221 145.025 22.4221C144.876 22.4221 144.733 22.3681 144.622 22.2702C144.511 22.1723 144.439 22.0371 144.42 21.8901V21.6701C144.42 21.51 144.483 21.3563 144.595 21.2422C144.707 21.1281 144.86 21.0627 145.02 21.0601Z" fill="white"/>
<path d="M143.73 21.7801C143.73 21.9684 143.655 22.149 143.522 22.2821C143.389 22.4153 143.208 22.4901 143.02 22.4901H140.48C140.305 22.4693 140.143 22.3851 140.026 22.2533C139.909 22.1215 139.844 21.9513 139.844 21.7751C139.844 21.5988 139.909 21.4286 140.026 21.2968C140.143 21.165 140.305 21.0808 140.48 21.0601H143.02C143.114 21.06 143.207 21.0787 143.294 21.115C143.381 21.1513 143.459 21.2045 143.525 21.2715C143.591 21.3385 143.644 21.418 143.679 21.5053C143.714 21.5926 143.731 21.686 143.73 21.7801Z" fill="white"/>
<path d="M144.07 28.92H140.79C140.525 28.92 140.27 29.0254 140.083 29.2129C139.895 29.4004 139.79 29.6548 139.79 29.92V32.74C139.803 32.9965 139.914 33.2381 140.1 33.415C140.286 33.5919 140.533 33.6903 140.79 33.69H144.07C144.318 33.6779 144.552 33.5739 144.728 33.3983C144.904 33.2227 145.008 32.988 145.02 32.74V29.88C145.02 29.6232 144.922 29.3762 144.745 29.19C144.568 29.0038 144.326 28.8928 144.07 28.88" fill="#F26A30"/>
<path d="M55.9497 31.41C55.2907 32.2377 54.7983 33.1851 54.4997 34.2L55.3597 34.45C55.0928 35.3749 55.0079 36.3428 55.1097 37.3L54.2297 37.4C54.3648 38.4556 54.7044 39.4746 55.2297 40.4L55.4097 40.31L56.0097 39.98C56.4744 40.8202 57.0996 41.5609 57.8497 42.16L57.2997 42.86C58.1034 43.5135 59.0275 44.0027 60.0197 44.3L60.2697 43.45C61.191 43.7182 62.1565 43.7998 63.1097 43.69L63.2097 44.58C64.2663 44.4496 65.2862 44.1097 66.2097 43.58L66.0897 43.36L65.7897 42.8C66.646 42.3596 67.4045 41.7508 68.0197 41.01L68.7097 41.56C69.374 40.7321 69.8669 39.7803 70.1597 38.76L69.3097 38.52C69.5785 37.5954 69.66 36.6265 69.5497 35.67L70.4297 35.57C70.3169 34.5166 69.9939 33.4964 69.4797 32.57L68.6997 33C68.2382 32.1578 67.6125 31.4165 66.8597 30.82L67.4197 30.13C66.5933 29.4635 65.641 28.9703 64.6197 28.68L64.3697 29.53C63.4486 29.2613 62.4829 29.1797 61.5297 29.29L61.4297 28.41C60.3727 28.5383 59.3524 28.8784 58.4297 29.41L58.7097 29.93L58.8497 30.19C58.0056 30.6489 57.2638 31.2749 56.6697 32.03L55.9497 31.41ZM59.2397 34.03C59.7244 33.4194 60.3793 32.9662 61.1217 32.7279C61.864 32.4896 62.6603 32.4769 63.4099 32.6914C64.1594 32.9058 64.8285 33.3379 65.3324 33.9328C65.8363 34.5277 66.1524 35.2587 66.2406 36.0334C66.3288 36.808 66.1853 37.5914 65.8281 38.2844C65.4709 38.9774 64.9162 39.5488 64.2341 39.9264C63.552 40.304 62.7732 40.4707 61.9963 40.4055C61.2194 40.3403 60.4793 40.0461 59.8697 39.56C59.0568 38.9098 58.5342 37.9643 58.4162 36.93C58.2981 35.8957 58.5942 34.8567 59.2397 34.04V34.03Z" stroke="#818CC5" stroke-width="1.46" stroke-miterlimit="10"/>
<path d="M123.77 63.21C123.01 64.169 122.443 65.2658 122.1 66.44L123.1 66.72C122.794 67.7881 122.698 68.9056 122.82 70.01L121.82 70.12C121.956 71.3329 122.327 72.5078 122.91 73.58L123.12 73.47L123.81 73.09C124.345 74.0633 125.069 74.9201 125.94 75.61L125.3 76.41C126.251 77.1751 127.346 77.7428 128.52 78.08L128.81 77.08C129.848 77.399 130.938 77.5111 132.02 77.41L132.14 78.41C133.353 78.2685 134.528 77.895 135.6 77.31V77.31L135.46 77.04L135.11 76.41C136.077 75.8748 136.93 75.1545 137.62 74.29L138.43 74.93C139.189 73.9711 139.756 72.8743 140.1 71.7L139.1 71.41C139.412 70.3465 139.507 69.2311 139.38 68.13L140.38 68.02C140.238 66.8069 139.865 65.6322 139.28 64.56L138.38 65.05C137.845 64.079 137.125 63.2227 136.26 62.53L136.9 61.73C135.944 60.9647 134.847 60.397 133.67 60.06L133.39 61.06C132.327 60.7455 131.211 60.6469 130.11 60.77L129.99 59.77C128.776 59.9035 127.601 60.2738 126.53 60.86V60.86L126.86 61.45L127.02 61.75C126.05 62.2858 125.196 63.0099 124.51 63.88L123.77 63.21ZM127.57 66.21C128.129 65.5079 128.885 64.9875 129.74 64.7147C130.596 64.4418 131.513 64.4288 132.376 64.6772C133.239 64.9256 134.009 65.4244 134.588 66.1103C135.167 66.7963 135.53 67.6386 135.631 68.5309C135.732 69.4232 135.566 70.3253 135.154 71.1231C134.742 71.9209 134.102 72.5787 133.317 73.0131C132.531 73.4476 131.634 73.6393 130.739 73.564C129.844 73.4887 128.992 73.1497 128.29 72.59C127.355 71.8417 126.754 70.7536 126.619 69.5636C126.484 68.3737 126.826 67.1787 127.57 66.24V66.21Z" stroke="#818CC5" stroke-width="1.26" stroke-miterlimit="10"/>
<path d="M81.4098 31.69C82.2098 26.97 89.4698 24.84 89.3298 27.92L122.65 28.11C123.815 28.1822 124.906 28.7087 125.687 29.5762C126.469 30.4438 126.879 31.5833 126.83 32.75L126.89 120.36C126.958 121.561 126.551 122.741 125.755 123.643C124.959 124.545 123.84 125.098 122.64 125.18L88.6398 125.48C88.3688 125.993 87.9415 126.406 87.4198 126.66C83.5198 126.74 81.6498 124.82 80.9598 122.66C80.7329 122.049 80.6178 121.402 80.6198 120.75C80.7598 119.61 81.1698 32.81 81.4198 31.75" fill="#818CC5"/>
<path d="M87.7697 126.67L126.77 126.42C128.008 126.34 129.165 125.776 129.99 124.85C130.815 123.923 131.243 122.709 131.18 121.47L131.02 31.41C131.071 30.206 130.645 29.0303 129.835 28.1388C129.024 27.2473 127.893 26.7122 126.69 26.65L88.4097 26.53C87.1983 26.5821 86.0565 27.1103 85.2325 27.9998C84.4085 28.8893 83.9691 30.0682 84.0097 31.28L83.3197 121.8C83.282 122.413 83.3665 123.028 83.5685 123.608C83.7705 124.188 84.0859 124.722 84.4964 125.179C84.9068 125.636 85.4041 126.006 85.9592 126.269C86.5143 126.532 87.1162 126.682 87.7297 126.71" fill="white"/>
<path d="M87.2298 126.02C87.393 126.03 87.5566 126.03 87.7198 126.02L126.72 125.72C127.793 125.638 128.792 125.139 129.502 124.33C130.213 123.52 130.578 122.465 130.52 121.39L130.38 31.3901C130.424 30.3454 130.057 29.3251 129.358 28.5475C128.659 27.77 127.683 27.2971 126.64 27.2301L88.3698 27.0601H88.1898C87.7051 27.0869 87.2307 27.2105 86.7945 27.4234C86.3583 27.6364 85.9691 27.9344 85.6498 28.3001C84.9516 29.0889 84.5673 30.1066 84.5698 31.1601L83.8898 121.77C83.8363 122.755 84.1425 123.726 84.7514 124.502C85.3602 125.279 86.2303 125.807 87.1998 125.99" fill="black"/>
<path d="M85.9497 31.65L85.2897 121.94L129.25 121.68L129.14 31.65H85.9497Z" fill="#818CC5"/>
<path d="M101.1 84.46H112.02C112.463 84.46 112.887 84.284 113.201 83.9709C113.514 83.6577 113.69 83.2329 113.69 82.79C113.69 82.3471 113.514 81.9223 113.201 81.6091C112.887 81.2959 112.463 81.12 112.02 81.12H101.1C100.657 81.12 100.232 81.2959 99.9189 81.6091C99.6057 81.9223 99.4297 82.3471 99.4297 82.79C99.4297 83.2329 99.6057 83.6577 99.9189 83.9709C100.232 84.284 100.657 84.46 101.1 84.46Z" fill="#F26A30"/>
<path d="M92.8398 72.05H120.93C121.373 72.05 121.797 71.874 122.111 71.5608C122.424 71.2476 122.6 70.8229 122.6 70.38C122.6 69.937 122.424 69.5123 122.111 69.1991C121.797 68.8859 121.373 68.71 120.93 68.71H92.8398C92.3968 68.71 91.9721 68.8859 91.6589 69.1991C91.3457 69.5123 91.1697 69.937 91.1697 70.38C91.1697 70.8229 91.3457 71.2476 91.6589 71.5608C91.9721 71.874 92.3968 72.05 92.8398 72.05Z" fill="white"/>
<path d="M92.8397 77.4101H120.93C121.352 77.3774 121.746 77.1868 122.033 76.8763C122.321 76.5658 122.48 76.1582 122.48 75.735C122.48 75.3119 122.321 74.9043 122.033 74.5938C121.746 74.2833 121.352 74.0927 120.93 74.0601H92.8397C92.6089 74.0422 92.3768 74.0723 92.1582 74.1483C91.9395 74.2244 91.7389 74.3449 91.569 74.5022C91.3991 74.6595 91.2635 74.8502 91.1708 75.0623C91.0781 75.2745 91.0302 75.5035 91.0302 75.735C91.0302 75.9666 91.0781 76.1956 91.1708 76.4078C91.2635 76.6199 91.3991 76.8107 91.569 76.9679C91.7389 77.1252 91.9395 77.2457 92.1582 77.3218C92.3768 77.3978 92.6089 77.4279 92.8397 77.4101Z" fill="white"/>
<path d="M115.69 75.91C115.688 76.0276 115.721 76.143 115.785 76.2415C115.849 76.3401 115.941 76.4172 116.049 76.4631C116.158 76.509 116.277 76.5215 116.392 76.4991C116.508 76.4767 116.614 76.4203 116.697 76.3371C116.78 76.254 116.836 76.148 116.859 76.0326C116.881 75.9173 116.869 75.7978 116.823 75.6896C116.777 75.5814 116.7 75.4894 116.601 75.4253C116.503 75.3612 116.387 75.3281 116.27 75.33C116.116 75.33 115.968 75.3911 115.86 75.4999C115.751 75.6087 115.69 75.7562 115.69 75.91Z" fill="#818CC5"/>
<path d="M113.67 75.91C113.668 76.0271 113.701 76.1422 113.764 76.2405C113.828 76.3388 113.919 76.416 114.027 76.4622C114.135 76.5084 114.253 76.5215 114.369 76.4999C114.484 76.4783 114.59 76.4229 114.673 76.3408C114.757 76.2587 114.814 76.1536 114.838 76.0389C114.861 75.9242 114.85 75.805 114.806 75.6966C114.761 75.5882 114.686 75.4955 114.589 75.4302C114.491 75.3649 114.377 75.3301 114.26 75.33C114.183 75.3287 114.106 75.3427 114.035 75.3713C113.963 75.3998 113.898 75.4424 113.843 75.4963C113.788 75.5503 113.745 75.6147 113.715 75.6858C113.685 75.7568 113.67 75.833 113.67 75.91Z" fill="#818CC5"/>
<path d="M111.65 75.91C111.648 75.9878 111.663 76.0651 111.692 76.1373C111.721 76.2095 111.764 76.2751 111.82 76.3302C111.875 76.3852 111.94 76.4286 112.012 76.4578C112.085 76.487 112.162 76.5013 112.24 76.4999C112.323 76.5109 112.408 76.5039 112.488 76.4795C112.568 76.4551 112.642 76.4138 112.706 76.3584C112.769 76.303 112.819 76.2348 112.854 76.1584C112.888 76.0819 112.906 75.9989 112.906 75.915C112.906 75.831 112.888 75.748 112.854 75.6715C112.819 75.5951 112.769 75.5269 112.706 75.4715C112.642 75.4161 112.568 75.3748 112.488 75.3504C112.408 75.326 112.323 75.319 112.24 75.33C112.163 75.3286 112.086 75.3426 112.015 75.3712C111.943 75.3997 111.878 75.4423 111.823 75.4963C111.768 75.5502 111.725 75.6146 111.695 75.6857C111.665 75.7567 111.65 75.8329 111.65 75.91Z" fill="#818CC5"/>
<path d="M109.63 75.9099C109.63 76.0664 109.692 76.2165 109.803 76.3271C109.913 76.4378 110.063 76.4999 110.22 76.4999C110.336 76.4999 110.451 76.4653 110.548 76.4005C110.645 76.3357 110.72 76.2435 110.765 76.1357C110.81 76.0279 110.821 75.9093 110.798 75.7948C110.776 75.6804 110.719 75.5753 110.637 75.4928C110.554 75.4102 110.449 75.354 110.335 75.3313C110.22 75.3085 110.102 75.3202 109.994 75.3649C109.886 75.4095 109.794 75.4851 109.729 75.5822C109.664 75.6792 109.63 75.7933 109.63 75.9099Z" fill="#818CC5"/>
<path d="M107.61 75.9099C107.61 76.0664 107.672 76.2165 107.783 76.3271C107.893 76.4378 108.043 76.4999 108.2 76.4999C108.316 76.4999 108.431 76.4653 108.528 76.4005C108.625 76.3357 108.7 76.2435 108.745 76.1357C108.789 76.0279 108.801 75.9093 108.778 75.7948C108.756 75.6804 108.699 75.5753 108.617 75.4928C108.534 75.4102 108.429 75.354 108.315 75.3313C108.2 75.3085 108.082 75.3202 107.974 75.3649C107.866 75.4095 107.774 75.4851 107.709 75.5822C107.644 75.6792 107.61 75.7933 107.61 75.9099Z" fill="#818CC5"/>
<path d="M105.6 75.91C105.598 76.0271 105.631 76.1422 105.694 76.2405C105.758 76.3388 105.849 76.416 105.957 76.4622C106.065 76.5084 106.184 76.5215 106.299 76.4999C106.414 76.4783 106.52 76.4229 106.603 76.3408C106.687 76.2587 106.744 76.1536 106.768 76.0389C106.791 75.9242 106.78 75.805 106.736 75.6966C106.691 75.5882 106.616 75.4955 106.519 75.4302C106.421 75.3649 106.307 75.3301 106.19 75.33C106.113 75.3287 106.036 75.3427 105.965 75.3713C105.893 75.3998 105.828 75.4424 105.773 75.4963C105.718 75.5503 105.675 75.6147 105.645 75.6858C105.615 75.7568 105.6 75.833 105.6 75.91Z" fill="#818CC5"/>
<path d="M103.58 75.91C103.578 75.9878 103.593 76.0651 103.622 76.1373C103.651 76.2095 103.694 76.2751 103.75 76.3302C103.805 76.3852 103.87 76.4286 103.942 76.4578C104.015 76.487 104.092 76.5013 104.17 76.4999C104.253 76.5109 104.338 76.5039 104.418 76.4795C104.498 76.4551 104.572 76.4138 104.636 76.3584C104.699 76.303 104.749 76.2348 104.784 76.1584C104.818 76.0819 104.836 75.9989 104.836 75.915C104.836 75.831 104.818 75.748 104.784 75.6715C104.749 75.5951 104.699 75.5269 104.636 75.4715C104.572 75.4161 104.498 75.3748 104.418 75.3504C104.338 75.326 104.253 75.319 104.17 75.33C104.093 75.3286 104.016 75.3426 103.945 75.3712C103.873 75.3997 103.808 75.4423 103.753 75.4963C103.698 75.5502 103.655 75.6146 103.625 75.6857C103.595 75.7567 103.58 75.8329 103.58 75.91Z" fill="#818CC5"/>
<path d="M101.56 75.91C101.558 75.9878 101.573 76.0651 101.602 76.1373C101.631 76.2095 101.674 76.2751 101.73 76.3302C101.785 76.3852 101.85 76.4286 101.922 76.4578C101.995 76.487 102.072 76.5013 102.15 76.4999C102.233 76.5109 102.318 76.5039 102.398 76.4795C102.478 76.4551 102.552 76.4138 102.616 76.3584C102.679 76.303 102.729 76.2348 102.764 76.1584C102.798 76.0819 102.816 75.9989 102.816 75.915C102.816 75.831 102.798 75.748 102.764 75.6715C102.729 75.5951 102.679 75.5269 102.616 75.4715C102.552 75.4161 102.478 75.3748 102.398 75.3504C102.318 75.326 102.233 75.319 102.15 75.33C102.073 75.3286 101.996 75.3426 101.925 75.3712C101.853 75.3997 101.788 75.4423 101.733 75.4963C101.678 75.5502 101.635 75.6146 101.605 75.6857C101.575 75.7567 101.56 75.8329 101.56 75.91Z" fill="#818CC5"/>
<path d="M99.5397 75.9099C99.5397 76.0664 99.6019 76.2165 99.7125 76.3271C99.8232 76.4378 99.9733 76.4999 100.13 76.4999C100.246 76.4999 100.36 76.4653 100.458 76.4005C100.555 76.3357 100.63 76.2435 100.675 76.1357C100.719 76.0279 100.731 75.9093 100.708 75.7948C100.686 75.6804 100.629 75.5753 100.547 75.4928C100.464 75.4102 100.359 75.354 100.245 75.3313C100.13 75.3085 100.012 75.3202 99.9039 75.3649C99.7961 75.4095 99.704 75.4851 99.6392 75.5822C99.5743 75.6792 99.5397 75.7933 99.5397 75.9099Z" fill="#818CC5"/>
<path d="M100.42 57.57C100.418 58.8485 100.795 60.0989 101.504 61.1627C102.213 62.2266 103.222 63.0562 104.403 63.5463C105.584 64.0365 106.884 64.1653 108.138 63.9164C109.392 63.6674 110.544 63.052 111.448 62.1479C112.352 61.2439 112.967 60.0919 113.216 58.8378C113.465 57.5838 113.336 56.2841 112.846 55.1032C112.356 53.9224 111.526 52.9136 110.463 52.2045C109.399 51.4955 108.148 51.118 106.87 51.12C105.16 51.1226 103.521 51.803 102.312 53.0121C101.103 54.2211 100.422 55.8602 100.42 57.57Z" fill="white"/>
<path d="M106.87 57.3101C106.419 57.3049 105.982 57.1474 105.632 56.863C105.282 56.5787 105.038 56.1843 104.94 55.7438C104.842 55.3034 104.896 54.8428 105.093 54.4369C105.29 54.031 105.619 53.7037 106.025 53.508C106.432 53.3124 106.893 53.2599 107.333 53.3592C107.773 53.4585 108.166 53.7037 108.45 54.0549C108.733 54.4062 108.889 54.8428 108.893 55.294C108.896 55.7451 108.747 56.1843 108.47 56.54C108.277 56.7796 108.034 56.9731 107.757 57.1063C107.48 57.2395 107.177 57.3091 106.87 57.3101Z" fill="#B5BFE1"/>
<path d="M103.29 60.9401C103.29 62.2301 110.47 62.2301 110.47 60.9401V59.4101C110.19 57.3601 103.88 57.2701 103.29 59.4101V60.9401Z" fill="#B5BFE1"/>
<path d="M119.43 75.46V76.64C119.43 76.85 120.95 76.85 120.95 76.64V75.46H120.85V75.41C120.861 75.3172 120.853 75.223 120.825 75.1337C120.798 75.0444 120.751 74.9619 120.689 74.8919C120.627 74.8218 120.551 74.7657 120.466 74.7272C120.381 74.6888 120.288 74.6689 120.195 74.6689C120.101 74.6689 120.009 74.6888 119.924 74.7272C119.838 74.7657 119.762 74.8218 119.7 74.8919C119.638 74.9619 119.592 75.0444 119.564 75.1337C119.537 75.223 119.528 75.3172 119.54 75.41V75.5L119.43 75.46ZM120.62 75.46H119.77V75.41C119.76 75.3488 119.764 75.2862 119.781 75.2266C119.798 75.1669 119.828 75.1117 119.868 75.0647C119.909 75.0176 119.959 74.9798 120.015 74.9539C120.071 74.9281 120.133 74.9146 120.195 74.9146C120.257 74.9146 120.318 74.9281 120.374 74.9539C120.431 74.9798 120.481 75.0176 120.521 75.0647C120.561 75.1117 120.591 75.1669 120.608 75.2266C120.625 75.2862 120.629 75.3488 120.62 75.41V75.46ZM119.99 75.88C119.99 75.8243 120.012 75.7709 120.051 75.7315C120.091 75.6922 120.144 75.67 120.2 75.67C120.227 75.67 120.255 75.6755 120.28 75.686C120.306 75.6966 120.329 75.712 120.348 75.7315C120.368 75.751 120.383 75.7742 120.394 75.7997C120.404 75.8251 120.41 75.8525 120.41 75.88C120.411 75.9161 120.401 75.9517 120.381 75.982C120.361 76.0123 120.333 76.036 120.3 76.05V76.41C120.301 76.4236 120.3 76.4373 120.295 76.4501C120.291 76.463 120.284 76.4747 120.274 76.4843C120.264 76.4939 120.253 76.5012 120.24 76.5057C120.227 76.5102 120.213 76.5116 120.2 76.51C120.185 76.5114 120.171 76.5099 120.157 76.5056C120.143 76.5013 120.13 76.4943 120.119 76.485C120.108 76.4757 120.099 76.4643 120.092 76.4514C120.085 76.4386 120.081 76.4245 120.08 76.41V76.06C120.055 76.0379 120.036 76.0096 120.026 75.9781C120.015 75.9465 120.013 75.9127 120.02 75.88H119.99Z" fill="#3F4244"/>
<path d="M120.19 70.26C120.134 70.26 120.078 70.2488 120.027 70.2271C119.975 70.2054 119.928 70.1735 119.889 70.1335C119.85 70.0934 119.819 70.0459 119.799 69.9938C119.778 69.9417 119.768 69.886 119.77 69.83C119.76 69.7687 119.764 69.7061 119.781 69.6465C119.798 69.5869 119.828 69.5317 119.868 69.4846C119.909 69.4376 119.959 69.3998 120.015 69.3739C120.071 69.348 120.133 69.3346 120.195 69.3346C120.257 69.3346 120.318 69.348 120.374 69.3739C120.431 69.3998 120.481 69.4376 120.521 69.4846C120.561 69.5317 120.591 69.5869 120.608 69.6465C120.625 69.7061 120.629 69.7687 120.62 69.83C120.622 69.9277 120.59 70.0232 120.53 70.1C120.489 70.1506 120.437 70.1914 120.378 70.2191C120.319 70.2468 120.255 70.2608 120.19 70.26Z" fill="#3F4244"/>
<path d="M119.44 71.03C119.44 71.3 120.96 71.3 120.96 71.03V70.71C120.9 70.28 119.57 70.26 119.45 70.71L119.44 71.03Z" fill="#3F4244"/>
<path d="M110.35 70.87H116.51C116.642 70.87 116.77 70.8173 116.863 70.7235C116.957 70.6298 117.01 70.5026 117.01 70.37C117.01 70.2374 116.957 70.1102 116.863 70.0164C116.77 69.9227 116.642 69.87 116.51 69.87H110.35C110.217 69.87 110.09 69.9227 109.996 70.0164C109.902 70.1102 109.85 70.2374 109.85 70.37C109.85 70.5026 109.902 70.6298 109.996 70.7235C110.09 70.8173 110.217 70.87 110.35 70.87Z" fill="#818CC5"/>
<path d="M102.23 70.87H108.39C108.522 70.87 108.65 70.8173 108.743 70.7235C108.837 70.6298 108.89 70.5026 108.89 70.37C108.89 70.2374 108.837 70.1102 108.743 70.0164C108.65 69.9227 108.522 69.87 108.39 69.87H102.23C102.097 69.87 101.97 69.9227 101.876 70.0164C101.782 70.1102 101.73 70.2374 101.73 70.37C101.73 70.5026 101.782 70.6298 101.876 70.7235C101.97 70.8173 102.097 70.87 102.23 70.87Z" fill="#818CC5"/>
<path d="M151.13 123.32H151.21C151.366 123.321 151.52 123.292 151.664 123.233C151.809 123.174 151.94 123.088 152.051 122.978C152.161 122.868 152.249 122.738 152.309 122.594C152.369 122.45 152.4 122.296 152.4 122.14V117.41C152.916 117.205 153.359 116.851 153.674 116.393C153.989 115.936 154.162 115.395 154.17 114.84C154.17 114.044 153.854 113.281 153.291 112.719C152.728 112.156 151.965 111.84 151.17 111.84C150.374 111.84 149.611 112.156 149.048 112.719C148.486 113.281 148.17 114.044 148.17 114.84C148.178 115.395 148.35 115.936 148.665 116.393C148.98 116.851 149.424 117.205 149.94 117.41V122.12C149.942 122.434 150.069 122.734 150.292 122.955C150.515 123.176 150.816 123.3 151.13 123.3V123.32ZM163.32 108.52V125.26C163.32 127.12 139.03 127.12 139.03 125.26V108.54L163.32 108.52ZM141.16 107.33H143.62V106.2C143.741 104.279 144.59 102.476 145.993 101.158C147.397 99.8399 149.249 99.1064 151.175 99.1064C153.1 99.1064 154.953 99.8399 156.356 101.158C157.76 102.476 158.609 104.279 158.73 106.2V107.33H161.19V106.2C161.19 101.03 156.7 96.8201 151.19 96.8201C145.68 96.8201 141.19 101.03 141.19 106.2L141.16 107.33Z" fill="#616DB3"/>
<path d="M71.6898 70.04C67.0698 75.04 59.6898 79.04 51.7898 80.78C51.7898 81.31 51.7898 84.23 51.7198 97.7C51.6398 115.7 68.7198 124.44 71.3898 125.79C73.9598 124.6 91.2698 115.84 91.3898 97.87C91.4498 84.41 91.4698 81.49 91.4698 80.96C83.5898 79.16 76.3098 75.03 71.7298 70.04" fill="white"/>
<path d="M71.6498 71.99C66.3071 76.6658 59.9169 79.986 53.0198 81.67L52.9498 97.67C52.9498 105.01 55.8298 111.67 61.5998 117.39C64.5003 120.253 67.8097 122.669 71.4198 124.56L71.6898 124.42V72.02" fill="#D8DDF0"/>
<path d="M71.6898 72.02V124.41C75.2057 122.568 78.4387 120.231 81.2898 117.47C87.1198 111.77 90.0898 105.16 90.1298 97.83L90.1998 81.83C83.3335 80.0832 76.9862 76.7158 71.6898 72.01" fill="#B5BFE1"/>
<path d="M86.2397 88.08C80.7197 88.94 73.2397 93.98 68.4397 100.08C68.0214 98.777 67.3419 97.5729 66.4427 96.5413C65.5435 95.5097 64.4434 94.6722 63.2097 94.08L58.4697 98.85C60.2037 99.7244 61.7075 100.995 62.8593 102.558C64.0112 104.122 64.7787 105.935 65.0997 107.85L69.8297 108.59C71.8297 104.59 76.9897 95.21 87.2497 90.13C87.014 89.4188 86.6773 88.7452 86.2497 88.13" fill="#818CC5"/>
</svg>
