<svg width="200" height="136" viewBox="0 0 200 136" fill="none" xmlns="http://www.w3.org/2000/svg">
<path fill-rule="evenodd" clip-rule="evenodd" d="M96.5003 63.2581C98.5535 63.2581 100.313 64.4313 100.313 65.9957C100.313 67.4622 98.6513 68.7333 96.5003 68.7333C94.4471 68.7333 92.6873 67.56 92.6873 65.9957C92.6873 64.5291 94.4471 63.2581 96.5003 63.2581Z" fill="#572E04"/>
<path d="M96.5003 63.2581C98.5535 63.2581 100.313 64.4313 100.313 65.9957C100.313 67.4622 98.6513 68.7333 96.5003 68.7333C94.4471 68.7333 92.6873 67.56 92.6873 65.9957C92.6873 64.5291 94.4471 63.2581 96.5003 63.2581Z" stroke="#1A1A18" stroke-width="0.4799" stroke-miterlimit="22.9256"/>
<path d="M123.583 26.5938H40.6729C34.611 26.5938 29.6247 21.6074 29.6247 15.5456C29.6247 9.48378 34.611 4.49744 40.6729 4.49744H123.485C129.547 4.49744 134.533 9.48378 134.533 15.5456C134.533 21.6074 129.645 26.5938 123.583 26.5938Z" fill="#EFF1F9"/>
<path d="M166.114 48.6901H52.5032C46.4414 48.6901 41.4551 43.7037 41.4551 37.6419C41.4551 31.5801 46.4414 26.5938 52.5032 26.5938H166.211C172.273 26.5938 177.26 31.5801 177.26 37.6419C177.162 43.7037 172.273 48.6901 166.114 48.6901Z" fill="#EFF1F9"/>
<path d="M153.11 114.001H39.4019C33.34 114.001 28.3537 109.015 28.3537 102.953C28.3537 96.8915 33.34 91.9052 39.4019 91.9052H153.11C159.172 91.9052 164.158 96.8915 164.158 102.953C164.158 109.015 159.172 114.001 153.11 114.001Z" fill="#EFF1F9"/>
<path d="M153.11 70.7865H11.0482C4.98634 70.7865 0 65.8002 0 59.7384C0 53.6765 4.98634 48.6902 11.0482 48.6902H153.11C159.172 48.6902 164.158 53.6765 164.158 59.7384C164.158 65.8002 159.172 70.7865 153.11 70.7865Z" fill="#EFF1F9"/>
<path d="M146.07 136H67.6578C61.596 136 56.6097 131.014 56.6097 124.952C56.6097 118.89 61.596 113.904 67.6578 113.904H146.07C152.132 113.904 157.119 118.89 157.119 124.952C157.119 131.014 152.132 136 146.07 136Z" fill="#EFF1F9"/>
<path d="M188.601 91.9052H52.5032C46.4414 91.9052 41.4551 86.9188 41.4551 80.857C41.4551 74.7952 46.4414 69.8088 52.5032 69.8088H188.699C194.761 69.8088 199.747 74.7952 199.747 80.857C199.649 86.9188 194.761 91.9052 188.601 91.9052Z" fill="#EFF1F9"/>
<path d="M142.453 16.1324C140.204 16.1324 138.444 14.2747 138.444 12.1237C138.444 9.875 140.302 8.11511 142.453 8.11511C144.702 8.11511 146.462 9.97277 146.462 12.1237C146.462 14.3725 144.702 16.1324 142.453 16.1324ZM142.453 10.5594C141.573 10.5594 140.889 11.2438 140.889 12.1237C140.889 13.0037 141.573 13.6881 142.453 13.6881C143.333 13.6881 144.017 13.0037 144.017 12.1237C144.017 11.2438 143.333 10.5594 142.453 10.5594Z" fill="#8D93D0"/>
<path d="M187.33 75.4795C185.081 75.4795 183.321 73.6219 183.321 71.4709C183.321 69.2222 185.179 67.4623 187.33 67.4623C189.579 67.4623 191.339 69.3199 191.339 71.4709C191.339 73.6219 189.579 75.4795 187.33 75.4795ZM187.33 69.8088C186.45 69.8088 185.766 70.4932 185.766 71.3731C185.766 72.2531 186.45 72.9375 187.33 72.9375C188.21 72.9375 188.894 72.2531 188.894 71.3731C188.894 70.4932 188.21 69.8088 187.33 69.8088Z" fill="#CADDE9"/>
<path d="M38.7175 132.285C36.4687 132.285 34.7089 130.427 34.7089 128.276C34.7089 126.027 36.5665 124.267 38.7175 124.267C40.9662 124.267 42.7261 126.125 42.7261 128.276C42.7261 130.427 40.9662 132.285 38.7175 132.285ZM38.7175 126.712C37.8375 126.712 37.1531 127.396 37.1531 128.276C37.1531 129.156 37.8375 129.84 38.7175 129.84C39.5974 129.84 40.2818 129.156 40.2818 128.276C40.2818 127.396 39.5974 126.712 38.7175 126.712Z" fill="#8D93D0"/>
<path d="M82.6168 8.01725C80.3681 8.01725 78.6082 6.1596 78.6082 4.00863C78.6082 1.75988 80.4659 0 82.6168 0C84.8656 0 86.6255 1.85766 86.6255 4.00863C86.7232 6.1596 84.8656 8.01725 82.6168 8.01725ZM82.6168 2.34651C81.7369 2.34651 81.0525 3.03091 81.0525 3.91086C81.0525 4.7908 81.7369 5.4752 82.6168 5.4752C83.4968 5.4752 84.1812 4.7908 84.1812 3.91086C84.1812 3.12868 83.4968 2.34651 82.6168 2.34651Z" fill="#8D93D0"/>
<path d="M34.7088 12.4171H32.2646V10.0706H29.8203V12.4171H27.4738V14.8614H29.8203V17.3056H32.2646V14.8614H34.7088V12.4171Z" fill="#8D93D0"/>
<path d="M30.6025 83.399H28.2559V81.0525H25.8117V83.399H23.3674V85.8433H25.8117V88.2876H28.2559V85.8433H30.6025V83.399Z" fill="#8D93D0"/>
<path d="M114.588 89.1675H97.5758V109.699H114.588V89.1675Z" fill="#F6AE53"/>
<path fill-rule="evenodd" clip-rule="evenodd" d="M87.5054 65.6046C89.363 65.6046 90.9274 68.0489 90.9274 70.982C90.9274 73.9152 89.4608 76.3595 87.5054 76.3595C85.6477 76.3595 84.0834 73.9152 84.0834 70.982C84.0834 68.0489 85.5499 65.6046 87.5054 65.6046Z" fill="#FBCA82"/>
<path fill-rule="evenodd" clip-rule="evenodd" d="M126.516 65.6046C128.374 65.6046 129.938 68.0489 129.938 70.982C129.938 73.9152 128.472 76.3595 126.516 76.3595C124.659 76.3595 123.094 73.9152 123.094 70.982C123.094 68.0489 124.659 65.6046 126.516 65.6046Z" fill="#FBCA82"/>
<path fill-rule="evenodd" clip-rule="evenodd" d="M125.147 72.8397C125.147 83.3012 116.739 91.7096 106.278 91.7096C95.9138 91.7096 87.4077 83.3012 87.4077 72.8397V44.9749H125.147V72.8397Z" fill="#FBCA82"/>
<path fill-rule="evenodd" clip-rule="evenodd" d="M105.691 80.5636H106.962H112.046C112.046 80.5636 113.219 80.7591 111.459 82.6168C108.331 85.7455 104.42 85.7455 101.193 82.6168C99.3357 80.7591 100.607 80.5636 100.607 80.5636H105.691Z" fill="#FF6B36"/>
<path fill-rule="evenodd" clip-rule="evenodd" d="M98.7491 80.0748C102.953 84.1812 109.113 83.8879 113.708 80.5637L110.188 78.0216L98.7491 80.0748Z" fill="white"/>
<path fill-rule="evenodd" clip-rule="evenodd" d="M87.5054 70.982H87.0165V42.8239C87.0165 42.8239 87.9943 36.1754 100.313 36.0776C112.535 35.9799 119.868 35.5888 121.237 34.6111C122.605 33.6333 122.605 32.8512 122.605 32.8512C122.605 32.8512 125.245 31.8735 125.245 36.5665C125.245 41.2595 122.605 42.1395 122.605 42.1395C122.605 42.1395 126.614 40.8684 126.614 42.9216C126.614 44.9748 126.223 70.982 126.223 70.982H125.734L124.17 57.1963H121.628C121.628 57.1963 121.725 54.8497 121.628 53.3832C121.53 51.9166 118.108 51.33 111.166 53.2854C104.322 55.2408 99.0424 52.9921 96.5004 52.2099C94.0561 51.4277 93.1761 51.9166 92.5895 53.0899C92.0029 54.3609 92.9806 57.3918 92.1006 57.3918H89.0697L87.5054 70.982Z" fill="#1A1A18"/>
<path d="M101.976 63.6492H92.1006C95.0338 65.6046 99.5313 69.711 101.976 63.6492Z" fill="#572E04"/>
<path fill-rule="evenodd" clip-rule="evenodd" d="M92.3939 59.4451H101.78C102.562 59.4451 103.149 60.0317 103.149 60.8139C103.149 61.596 102.562 62.1827 101.78 62.1827H92.3939C91.6118 62.1827 91.0251 61.596 91.0251 60.8139C91.0251 60.0317 91.6118 59.4451 92.3939 59.4451Z" fill="#572E04"/>
<path d="M111.264 63.6492H121.236C118.303 65.6046 113.708 69.711 111.264 63.6492Z" fill="#572E04"/>
<path fill-rule="evenodd" clip-rule="evenodd" d="M120.943 59.4451H111.557C110.775 59.4451 110.188 60.0317 110.188 60.8139C110.188 61.596 110.775 62.1827 111.557 62.1827H120.943C121.725 62.1827 122.312 61.596 122.312 60.8139C122.214 60.0317 121.628 59.4451 120.943 59.4451Z" fill="#572E04"/>
<path fill-rule="evenodd" clip-rule="evenodd" d="M106.766 68.8311L108.135 72.0576L109.504 75.284C109.699 75.8707 109.504 76.164 109.113 76.2617H106.375H103.638C103.247 76.164 103.051 75.8707 103.247 75.284L104.615 72.0576L105.984 68.8311C106.18 68.3423 106.375 68.3423 106.766 68.8311Z" fill="#FBD49C"/>
<path d="M148.026 136H63.9425L72.8397 110.775L81.9324 106.18L88.8742 102.66L95.3271 100.216L97.4781 99.4335C97.4781 99.4335 100.02 107.157 105.789 107.157C111.557 107.157 113.904 99.4335 113.904 99.4335L116.446 100.313L123.094 102.66L130.036 106.18L139.129 110.775L148.026 136Z" fill="#FF6B36"/>
<path d="M84.0833 136H127.983L130.134 117.814V106.18L123.192 102.66V117.814H88.8741V102.66L81.9324 106.18V117.814L84.0833 136Z" fill="#C1C6E6"/>
<path d="M118.988 123.387H92.4917V136H118.988V123.387Z" fill="#696FB7"/>
<path d="M116.543 100.314C115.272 102.856 111.068 109.7 105.593 109.7C100.02 109.7 96.5004 102.66 95.4249 100.314L97.5758 99.5314C97.5758 99.5314 100.118 107.255 105.886 107.255C111.655 107.255 114.001 99.5314 114.001 99.5314L116.543 100.314Z" fill="#DA3C03"/>
<path fill-rule="evenodd" clip-rule="evenodd" d="M64.0403 136L72.8397 110.775L84.0834 136H64.0403Z" fill="#DA3C03"/>
<path fill-rule="evenodd" clip-rule="evenodd" d="M127.983 136L139.226 110.775L148.026 136H127.983Z" fill="#DA3C03"/>
<path d="M157.216 124.365H156.728C150.666 124.267 144.897 121.725 140.791 117.228C136.978 113.121 134.827 107.646 134.827 102.073C134.827 96.4025 136.978 91.0251 140.791 86.9187C144.897 82.4212 150.666 79.8791 156.728 79.7814C162.789 79.6836 168.656 82.0301 172.958 86.332L173.055 86.4298L173.838 87.212C174.033 87.4075 174.131 87.7008 174.131 87.9942C174.131 88.2875 174.033 88.5808 173.838 88.7763L157.216 105.593L148.417 96.7936L144.604 100.607L155.359 111.362C155.848 111.85 156.532 112.144 157.216 112.144C157.901 112.144 158.585 111.85 159.074 111.362L177.748 92.6872C179.019 91.4162 179.704 89.754 179.606 87.9942C179.606 86.2343 178.824 84.5722 177.455 83.3989L176.673 82.7145C172.371 78.4126 166.798 75.675 160.834 74.8928C154.87 74.1106 148.71 75.2839 143.431 78.3148C138.151 81.3457 134.045 85.941 131.698 91.5139C129.352 97.0869 128.863 103.246 130.329 109.113C131.796 114.979 135.218 120.161 139.911 123.974C144.702 127.689 150.47 129.84 156.532 129.938H157.119C164.451 129.938 171.491 127.005 176.673 121.823C181.855 116.641 184.788 109.602 184.788 102.269H179.41C179.41 108.233 177.064 113.904 172.86 118.01C168.753 122.019 163.083 124.365 157.216 124.365Z" fill="#696FB7"/>
</svg>
