<svg width="214" height="175" viewBox="0 0 214 175" fill="none" xmlns="http://www.w3.org/2000/svg">
<g clip-path="url(#clip0_2102_60263)">
<path d="M43.1999 166.96H43.3599H43.6399C43.7599 166.96 43.9199 166.96 44.0999 166.96H44.7899C45.2202 166.967 45.6498 166.923 46.0699 166.83C46.355 166.765 46.6238 166.642 46.8599 166.47C47.0276 166.331 47.1581 166.152 47.2399 165.95C47.2998 165.752 47.3301 165.547 47.3299 165.34C47.3279 165.144 47.301 164.949 47.2499 164.76C47.173 164.547 47.042 164.357 46.8699 164.21C46.6362 164.015 46.3634 163.871 46.0699 163.79C45.6134 163.669 45.1419 163.616 44.6699 163.63C44.2499 163.63 43.9099 163.63 43.6699 163.63L43.2099 163.68L43.1999 166.96ZM40.1999 173.73V162.92C40.1938 162.684 40.2346 162.45 40.3199 162.23C40.3805 162.053 40.4757 161.89 40.5999 161.75C40.7095 161.629 40.8421 161.53 40.9899 161.46C41.1406 161.395 41.2983 161.348 41.4599 161.32L41.8799 161.25L42.4899 161.19H43.3999H44.6899C45.609 161.169 46.5261 161.287 47.4099 161.54C48.0527 161.732 48.6486 162.056 49.1599 162.49C49.5797 162.868 49.9022 163.341 50.0999 163.87C50.2825 164.384 50.3772 164.925 50.3799 165.47C50.391 166.163 50.2368 166.849 49.9299 167.47C49.6115 168.056 49.1282 168.536 48.5399 168.85C48.7299 169.14 48.9199 169.47 49.1399 169.85C49.3599 170.23 49.5899 170.64 49.8199 171.07C50.0499 171.5 50.2899 171.93 50.5199 172.39L51.1699 173.72H47.6599L47.3199 172.98C47.1599 172.61 46.9699 172.22 46.7599 171.79C46.5499 171.36 46.3399 170.95 46.1099 170.54C45.8799 170.13 45.6999 169.82 45.5399 169.59C45.3669 169.605 45.1929 169.605 45.0199 169.59H44.1799H43.7799H43.4199H43.1999V173.75L40.1999 173.73Z" fill="#F26A30"/>
<path d="M52.75 173.73V163.02C52.75 161.87 53.34 161.3 54.54 161.3H60.74C61.1638 161.26 61.5865 161.386 61.92 161.65C62.1677 161.922 62.2972 162.282 62.28 162.65C62.2831 162.953 62.2323 163.255 62.13 163.54C62.0692 163.734 61.9888 163.922 61.89 164.1H55.77V166.03H60.54C60.7507 166.009 60.9635 166.03 61.1661 166.092C61.3686 166.153 61.5569 166.255 61.72 166.39C61.8428 166.524 61.9371 166.682 61.9972 166.854C62.0573 167.026 62.0821 167.208 62.07 167.39C62.0763 167.693 62.0289 167.994 61.93 168.28C61.8667 168.473 61.7864 168.661 61.69 168.84H55.77V170.84H62.18V173.66L52.75 173.73Z" fill="#F26A30"/>
<path d="M64.35 173.73V163.02C64.35 161.87 64.94 161.3 66.14 161.3H71.91C72.3336 161.261 72.756 161.386 73.09 161.65C73.3377 161.923 73.4672 162.282 73.45 162.65C73.4515 162.952 73.4042 163.253 73.31 163.54C73.2469 163.735 73.1631 163.923 73.06 164.1H67.37V166.2H71.44C71.8673 166.155 72.2949 166.281 72.63 166.55C72.8741 166.824 72.9999 167.184 72.98 167.55C72.9822 167.852 72.9349 168.153 72.84 168.44C72.7746 168.633 72.6944 168.82 72.6 169H67.37V173.67L64.35 173.73Z" fill="#F26A30"/>
<path d="M75.08 173.73V163.02C75.08 161.87 75.68 161.3 76.87 161.3H83.07C83.4937 161.26 83.9165 161.386 84.25 161.65C84.4977 161.922 84.6272 162.282 84.61 162.65C84.6131 162.953 84.5623 163.255 84.46 163.54C84.4013 163.734 84.3243 163.921 84.23 164.1H78.1V166.03H82.83C83.0407 166.009 83.2535 166.03 83.456 166.092C83.6586 166.153 83.8469 166.255 84.01 166.39C84.1345 166.524 84.2306 166.681 84.2925 166.853C84.3544 167.025 84.3807 167.208 84.37 167.39C84.3731 167.693 84.3223 167.995 84.22 168.28C84.1587 168.473 84.0818 168.66 83.99 168.84H78.1V170.84H84.54V173.66L75.08 173.73Z" fill="#F26A30"/>
<path d="M89.63 166.96H89.78H90.0701C90.1901 166.96 90.3401 166.96 90.5201 166.96H91.22C91.6503 166.966 92.0798 166.922 92.5001 166.83C92.7814 166.763 93.0465 166.641 93.2801 166.47C93.451 166.334 93.5822 166.154 93.66 165.95C93.7231 165.753 93.7568 165.547 93.7601 165.34C93.7587 165.143 93.7284 164.948 93.6701 164.76C93.5972 164.547 93.4695 164.358 93.3 164.21C93.0625 164.015 92.7865 163.872 92.49 163.79C92.0337 163.669 91.562 163.615 91.0901 163.63C90.6701 163.63 90.3301 163.63 90.0901 163.63L89.63 163.68V166.96ZM86.63 173.73V162.92C86.6208 162.685 86.6582 162.45 86.74 162.23C86.8006 162.053 86.8958 161.89 87.0201 161.75C87.1333 161.628 87.2691 161.53 87.42 161.46C87.5668 161.394 87.7214 161.347 87.88 161.32L88.3001 161.25L88.92 161.19H89.8201H91.1201C92.0359 161.169 92.9496 161.287 93.83 161.54C94.4737 161.73 95.07 162.054 95.58 162.49C96.0029 162.865 96.3259 163.339 96.52 163.87C96.7073 164.383 96.8021 164.924 96.8 165.47C96.8111 166.163 96.6569 166.849 96.35 167.47C96.0175 168.095 95.496 168.599 94.8601 168.91C95.0501 169.2 95.25 169.53 95.47 169.91L96.1501 171.13C96.3767 171.55 96.6067 171.99 96.8401 172.45C97.0701 172.9 97.28 173.35 97.49 173.78H94.0301L93.7001 173.04L93.1401 171.85C92.9301 171.43 92.71 171.01 92.49 170.6C92.27 170.19 92.07 169.88 91.91 169.65C91.737 169.665 91.5631 169.665 91.3901 169.65H90.55H90.1601H89.8001H89.5801V173.81L86.63 173.73Z" fill="#F26A30"/>
<path d="M106.33 170.02C106.332 170.195 106.366 170.367 106.43 170.53C106.512 170.713 106.643 170.869 106.81 170.98C107.052 171.124 107.315 171.229 107.59 171.29C108.007 171.379 108.433 171.42 108.86 171.41C109.44 171.41 109.86 171.41 110.18 171.41C110.388 171.403 110.595 171.379 110.8 171.34V168.72H108C107.542 168.68 107.087 168.82 106.73 169.11C106.603 169.233 106.502 169.381 106.433 169.544C106.365 169.708 106.33 169.883 106.33 170.06V170.02ZM103.33 170.23C103.309 169.609 103.5 168.999 103.87 168.5C104.232 168.033 104.698 167.657 105.23 167.4C104.752 167.133 104.341 166.76 104.03 166.31C103.708 165.821 103.544 165.245 103.56 164.66C103.553 164.124 103.67 163.594 103.9 163.11C104.14 162.652 104.482 162.255 104.9 161.95C105.341 161.62 105.839 161.376 106.37 161.23C106.989 161.06 107.628 160.976 108.27 160.98C108.942 160.963 109.613 161.027 110.27 161.17C110.617 161.253 110.953 161.377 111.27 161.54C111.504 161.628 111.706 161.784 111.852 161.986C111.998 162.189 112.081 162.43 112.09 162.68C112.089 162.855 112.055 163.028 111.99 163.19C111.935 163.342 111.861 163.486 111.77 163.62C111.69 163.735 111.6 163.842 111.5 163.94C111.429 164.016 111.348 164.084 111.26 164.14C111.147 164.054 111.022 163.983 110.89 163.93C110.688 163.841 110.481 163.764 110.27 163.7C110.01 163.625 109.747 163.565 109.48 163.52C109.186 163.471 108.888 163.448 108.59 163.45C108.254 163.44 107.918 163.474 107.59 163.55C107.36 163.609 107.143 163.711 106.95 163.85C106.797 163.968 106.677 164.123 106.6 164.3C106.536 164.473 106.502 164.656 106.5 164.84C106.5 165.013 106.54 165.184 106.618 165.339C106.697 165.494 106.81 165.628 106.95 165.73C107.421 166.016 107.972 166.143 108.52 166.09H113.52C113.928 166.048 114.338 166.159 114.67 166.4C114.794 166.533 114.888 166.691 114.945 166.864C115.002 167.036 115.021 167.219 115 167.4C115.002 167.689 114.954 167.977 114.86 168.25C114.803 168.428 114.733 168.602 114.65 168.77H113.73V173.77C113.34 173.84 112.73 173.91 112.03 173.99C111.33 174.07 110.29 174.1 109.03 174.1C107.532 174.211 106.035 173.862 104.74 173.1C104.281 172.782 103.911 172.351 103.667 171.848C103.424 171.345 103.315 170.788 103.35 170.23H103.33Z" fill="#F26A30"/>
<path d="M121.15 173.73V163.02C121.15 161.87 121.75 161.3 122.94 161.3H129.14C129.564 161.26 129.987 161.386 130.32 161.65C130.568 161.922 130.697 162.282 130.68 162.65C130.683 162.953 130.632 163.255 130.53 163.54C130.471 163.734 130.394 163.921 130.3 164.1H124.17V166.03H128.9C129.111 166.009 129.324 166.03 129.526 166.092C129.729 166.153 129.917 166.255 130.08 166.39C130.205 166.524 130.301 166.681 130.363 166.853C130.424 167.025 130.451 167.208 130.44 167.39C130.443 167.693 130.392 167.995 130.29 168.28C130.229 168.473 130.152 168.66 130.06 168.84H124.17V170.84H130.54V173.66L121.15 173.73Z" fill="#F26A30"/>
<path d="M136.78 168.32H139.93C139.81 167.99 139.68 167.63 139.52 167.22C139.36 166.81 139.21 166.42 139.07 166.04L138.66 165.04C138.53 164.72 138.44 164.48 138.36 164.32C138.29 164.49 138.19 164.73 138.07 165.04L137.67 166.04C137.53 166.42 137.38 166.81 137.22 167.21C137.07 167.61 136.92 167.98 136.78 168.34V168.32ZM131.54 173.73C131.79 173.05 132.1 172.26 132.46 171.36C132.82 170.46 133.21 169.52 133.63 168.51C134.05 167.5 134.48 166.51 134.93 165.42C135.38 164.33 135.83 163.36 136.27 162.42C136.433 161.983 136.727 161.606 137.11 161.34C137.507 161.11 137.962 160.999 138.42 161.02C138.626 161.023 138.831 161.05 139.03 161.1C139.21 161.146 139.387 161.203 139.56 161.27C139.691 161.325 139.818 161.389 139.94 161.46L140.12 161.57C140.387 162.033 140.628 162.51 140.84 163C141.13 163.65 141.46 164.39 141.84 165.2L142.93 167.76C143.3 168.66 143.64 169.5 143.93 170.31C144.22 171.12 144.53 171.82 144.77 172.44L145.29 173.77H141.95L141.51 172.6C141.36 172.16 141.17 171.66 140.94 171.07H135.67C135.47 171.58 135.3 172.07 135.15 172.48L134.68 173.77L131.54 173.73Z" fill="#F26A30"/>
<path d="M149.61 166.96H149.77H150.05C150.17 166.96 150.32 166.96 150.51 166.96H151.2C151.63 166.967 152.06 166.923 152.48 166.83C152.761 166.763 153.026 166.641 153.26 166.47C153.434 166.336 153.565 166.156 153.64 165.95C153.708 165.754 153.742 165.548 153.74 165.34C153.739 165.143 153.708 164.948 153.65 164.76C153.581 164.546 153.453 164.355 153.28 164.21C153.042 164.015 152.766 163.872 152.47 163.79C152.017 163.669 151.549 163.615 151.08 163.63C150.66 163.63 150.32 163.63 150.08 163.63L149.62 163.68L149.61 166.96ZM146.66 173.73V162.92C146.656 162.685 146.693 162.452 146.77 162.23C146.835 162.055 146.929 161.892 147.05 161.75C147.165 161.631 147.301 161.532 147.45 161.46C147.6 161.394 147.758 161.347 147.92 161.32L148.34 161.25L148.95 161.19H149.86H151.15C152.066 161.169 152.98 161.287 153.86 161.54C154.506 161.732 155.105 162.056 155.62 162.49C156.04 162.868 156.362 163.341 156.56 163.87C156.743 164.384 156.837 164.925 156.84 165.47C156.846 166.162 156.692 166.847 156.39 167.47C156.052 168.091 155.532 168.593 154.9 168.91C155.08 169.2 155.28 169.53 155.5 169.91C155.72 170.29 155.95 170.7 156.18 171.13C156.41 171.56 156.65 171.99 156.87 172.45C157.09 172.91 157.32 173.35 157.52 173.78H154.07C154.01 173.64 153.9 173.4 153.73 173.04C153.56 172.68 153.38 172.28 153.17 171.85C152.96 171.42 152.74 171.01 152.52 170.6C152.343 170.274 152.149 169.957 151.94 169.65C151.77 169.665 151.6 169.665 151.43 169.65H150.54H150.15H149.79H149.57V173.81L146.66 173.73Z" fill="#F26A30"/>
<path d="M159.15 173.73V162.88C159.14 162.615 159.192 162.352 159.3 162.11C159.384 161.918 159.515 161.749 159.68 161.62C159.839 161.506 160.019 161.425 160.21 161.38C160.411 161.337 160.615 161.314 160.82 161.31C161.161 161.3 161.501 161.357 161.82 161.48C161.991 161.556 162.154 161.646 162.31 161.75C162.36 161.8 162.5 161.98 162.71 162.27C162.92 162.56 163.18 162.92 163.47 163.34C163.76 163.76 164.09 164.23 164.47 164.74C164.85 165.25 165.15 165.74 165.47 166.24L166.38 167.6C166.66 168.02 166.88 168.35 167.03 168.6V162.6C167.018 162.411 167.05 162.222 167.125 162.048C167.2 161.875 167.315 161.721 167.46 161.6C167.801 161.388 168.198 161.283 168.6 161.3C168.915 161.293 169.229 161.337 169.53 161.43L170.02 161.59V173.72H167.18C167.08 173.54 166.91 173.27 166.67 172.9L165.87 171.67L164.87 170.2L163.87 168.65C163.54 168.15 163.23 167.65 162.87 167.22C162.51 166.79 162.31 166.39 162.09 166.08V173.72L159.15 173.73Z" fill="#F26A30"/>
<path d="M131.82 23.58H43.42C40.2931 23.58 37.2943 22.3378 35.0832 20.1268C32.8722 17.9157 31.63 14.9169 31.63 11.79C31.63 8.66309 32.8722 5.66427 35.0832 3.45321C37.2943 1.24216 40.2931 0 43.42 0H131.82C134.947 0 137.946 1.24216 140.157 3.45321C142.368 5.66427 143.61 8.66309 143.61 11.79C143.61 14.9169 142.368 17.9157 140.157 20.1268C137.946 22.3378 134.947 23.58 131.82 23.58Z" fill="#ECEEF8"/>
<path d="M177.3 47.15H55.99C54.4135 47.1959 52.8438 46.925 51.3738 46.3534C49.9039 45.7819 48.5635 44.9211 47.4322 43.8223C46.3008 42.7234 45.4014 41.4087 44.7873 39.956C44.1731 38.5033 43.8567 36.9421 43.8567 35.365C43.8567 33.7878 44.1731 32.2266 44.7873 30.7739C45.4014 29.3212 46.3008 28.0065 47.4322 26.9076C48.5635 25.8088 49.9039 24.9481 51.3738 24.3765C52.8438 23.8049 54.4135 23.534 55.99 23.58H177.3C178.877 23.534 180.446 23.8049 181.916 24.3765C183.386 24.9481 184.726 25.8088 185.858 26.9076C186.989 28.0065 187.889 29.3212 188.503 30.7739C189.117 32.2266 189.433 33.7878 189.433 35.365C189.433 36.9421 189.117 38.5033 188.503 39.956C187.889 41.4087 186.989 42.7234 185.858 43.8223C184.726 44.9211 183.386 45.7819 181.916 46.3534C180.446 46.925 178.877 47.1959 177.3 47.15Z" fill="#ECEEF8"/>
<path d="M163.4 116.89H42.08C39.0138 116.801 36.1032 115.52 33.966 113.319C31.8288 111.119 30.6333 108.172 30.6333 105.105C30.6333 102.037 31.8288 99.0908 33.966 96.8904C36.1032 94.6901 39.0138 93.4093 42.08 93.3199H163.4C164.976 93.274 166.546 93.5449 168.016 94.1165C169.486 94.688 170.826 95.5488 171.958 96.6476C173.089 97.7465 173.989 99.0612 174.603 100.514C175.217 101.967 175.533 103.528 175.533 105.105C175.533 106.682 175.217 108.243 174.603 109.696C173.989 111.149 173.089 112.463 171.958 113.562C170.826 114.661 169.486 115.522 168.016 116.093C166.546 116.665 164.976 116.936 163.4 116.89Z" fill="#ECEEF8"/>
<path d="M163.4 70.73H11.78C8.65309 70.73 5.65425 69.4879 3.4432 67.2768C1.23215 65.0658 -0.0100098 62.0669 -0.0100098 58.94C-0.0100098 55.8131 1.23215 52.8143 3.4432 50.6032C5.65425 48.3922 8.65309 47.15 11.78 47.15H163.4C166.527 47.15 169.526 48.3922 171.737 50.6032C173.948 52.8143 175.19 55.8131 175.19 58.94C175.19 62.0669 173.948 65.0658 171.737 67.2768C169.526 69.4879 166.527 70.73 163.4 70.73Z" fill="#ECEEF8"/>
<path d="M155.83 140.35H72.1699C70.5934 140.396 69.0237 140.125 67.5538 139.554C66.0838 138.982 64.7435 138.121 63.6121 137.022C62.4808 135.923 61.5814 134.609 60.9672 133.156C60.3531 131.703 60.0366 130.142 60.0366 128.565C60.0366 126.988 60.3531 125.427 60.9672 123.974C61.5814 122.521 62.4808 121.207 63.6121 120.108C64.7435 119.009 66.0838 118.148 67.5538 117.577C69.0237 117.005 70.5934 116.734 72.1699 116.78H155.83C157.406 116.734 158.976 117.005 160.446 117.577C161.916 118.148 163.256 119.009 164.388 120.108C165.519 121.207 166.419 122.521 167.033 123.974C167.647 125.427 167.963 126.988 167.963 128.565C167.963 130.142 167.647 131.703 167.033 133.156C166.419 134.609 165.519 135.923 164.388 137.022C163.256 138.121 161.916 138.982 160.446 139.554C158.976 140.125 157.406 140.396 155.83 140.35Z" fill="#ECEEF8"/>
<path d="M201.3 93.32H55.9899C52.863 93.32 49.8642 92.0778 47.6532 89.8668C45.4421 87.6557 44.2 84.6569 44.2 81.53C44.2 78.4031 45.4421 75.4043 47.6532 73.1932C49.8642 70.9822 52.863 69.74 55.9899 69.74H201.3C204.427 69.74 207.426 70.9822 209.637 73.1932C211.848 75.4043 213.09 78.4031 213.09 81.53C213.09 84.6569 211.848 87.6557 209.637 89.8668C207.426 92.0778 204.427 93.32 201.3 93.32Z" fill="#ECEEF8"/>
<path d="M152.02 12.46C151.168 12.46 150.334 12.2072 149.625 11.7336C148.917 11.26 148.364 10.5869 148.038 9.79933C147.712 9.01178 147.626 8.14519 147.793 7.30913C147.959 6.47307 148.37 5.7051 148.972 5.10234C149.575 4.49957 150.343 4.08909 151.179 3.92278C152.015 3.75648 152.882 3.84183 153.669 4.16805C154.457 4.49426 155.13 5.04668 155.604 5.75546C156.077 6.46424 156.33 7.29753 156.33 8.14996C156.33 8.71596 156.218 9.27642 156.002 9.79933C155.785 10.3222 155.468 10.7974 155.068 11.1976C154.667 11.5978 154.192 11.9153 153.669 12.1319C153.146 12.3485 152.586 12.46 152.02 12.46ZM152.02 6.45997C151.69 6.45997 151.367 6.55791 151.092 6.74141C150.818 6.92492 150.603 7.18573 150.477 7.49088C150.351 7.79604 150.318 8.13182 150.382 8.45577C150.446 8.77971 150.606 9.07728 150.839 9.31084C151.073 9.54439 151.37 9.70344 151.694 9.76788C152.018 9.83231 152.354 9.79924 152.659 9.67284C152.964 9.54645 153.225 9.3324 153.409 9.05777C153.592 8.78314 153.69 8.46026 153.69 8.12997C153.689 7.91197 153.644 7.69637 153.56 7.49547C153.475 7.29457 153.352 7.11231 153.197 6.95909C153.042 6.80587 152.858 6.6847 152.656 6.60249C152.454 6.52028 152.238 6.47865 152.02 6.47997V6.45997Z" fill="#818CC5"/>
<path d="M182.81 112.89C181.955 112.892 181.119 112.64 180.407 112.167C179.695 111.693 179.14 111.019 178.812 110.23C178.483 109.441 178.396 108.572 178.562 107.733C178.727 106.895 179.138 106.124 179.742 105.519C180.346 104.914 181.115 104.501 181.954 104.334C182.792 104.166 183.661 104.251 184.451 104.578C185.241 104.905 185.916 105.458 186.391 106.169C186.866 106.88 187.12 107.715 187.12 108.57C187.12 109.714 186.666 110.811 185.858 111.621C185.05 112.431 183.954 112.887 182.81 112.89ZM182.81 106.89C182.479 106.888 182.155 106.985 181.878 107.167C181.602 107.35 181.387 107.611 181.259 107.916C181.131 108.222 181.097 108.558 181.162 108.883C181.226 109.208 181.385 109.507 181.619 109.741C181.853 109.975 182.152 110.134 182.477 110.198C182.802 110.262 183.138 110.229 183.444 110.101C183.749 109.973 184.01 109.758 184.193 109.482C184.375 109.205 184.472 108.881 184.47 108.55C184.465 108.113 184.288 107.696 183.977 107.389C183.666 107.082 183.247 106.91 182.81 106.91V106.89Z" fill="#BFD7E2"/>
<path d="M74.99 145.02C74.1352 145.022 73.299 144.77 72.5873 144.297C71.8755 143.823 71.3203 143.149 70.9918 142.36C70.6633 141.571 70.5763 140.702 70.7418 139.863C70.9074 139.025 71.318 138.254 71.9218 137.649C72.5256 137.044 73.2953 136.631 74.1336 136.464C74.9718 136.296 75.841 136.381 76.6309 136.708C77.4209 137.035 78.0962 137.588 78.5713 138.299C79.0464 139.01 79.3 139.845 79.3 140.7C79.2974 141.843 78.8428 142.939 78.0354 143.748C77.2279 144.558 76.1332 145.015 74.99 145.02ZM74.99 139.02C74.6589 139.018 74.3346 139.115 74.0585 139.297C73.7823 139.48 73.5667 139.741 73.4391 140.046C73.3115 140.352 73.2776 140.688 73.3417 141.013C73.4058 141.338 73.565 141.637 73.7992 141.871C74.0334 142.105 74.3318 142.264 74.6567 142.328C74.9816 142.392 75.3182 142.359 75.6238 142.231C75.9293 142.103 76.19 141.888 76.3728 141.612C76.5555 141.335 76.652 141.011 76.65 140.68C76.65 140.24 76.4751 139.818 76.1638 139.506C75.8525 139.195 75.4303 139.02 74.99 139.02Z" fill="#818CC5"/>
<path d="M37 8.46004H34.46V5.92004H31.81V8.46004H29.27V11.11H31.81V13.65H34.46V11.11H37V8.46004Z" fill="#818CC5"/>
<path d="M32.69 84.2201H30.15V81.6801H27.5V84.2201H24.96V86.8701H27.5V89.4101H30.15V86.8701H32.69V84.2201Z" fill="#818CC5"/>
<path d="M126.42 52.0201C126.84 49.5901 127.13 47.3601 127.32 45.3101L127.44 45.3801C128.02 45.7001 129.1 46.6001 129.1 47.2901C129.1 47.9801 127.82 49.9501 126.42 52.0201Z" fill="#F8F0BB"/>
<path d="M137.08 85.83C136.986 89.6542 136.408 93.4511 135.36 97.13C133.88 103.24 132.25 109.66 127.92 114.22C126.933 115.138 126.03 116.142 125.22 117.22C124.818 117.754 124.547 118.376 124.429 119.034C124.31 119.692 124.349 120.369 124.54 121.01C125.36 123.13 128.24 123.59 130.42 123.01C135.42 121.59 138.63 116.71 141.05 112.08C144.943 104.628 148.146 96.8353 150.62 88.8C150.763 88.4381 150.805 88.0438 150.74 87.66C150.563 87.2613 150.261 86.9312 149.88 86.72C148.047 85.5349 145.943 84.8352 143.765 84.6865C141.587 84.5378 139.407 84.9451 137.43 85.87L137.08 85.83Z" fill="#818CC5"/>
<path d="M127.72 30.57C127.72 30.57 130.97 40.8 142.78 47.03C154.59 53.26 154.78 53.68 162.31 54.76C169.84 55.84 175.51 58.46 177.77 66.99C180.11 75.86 177.34 85.24 170.69 89.53C164.04 93.82 155.87 91.68 153.69 91.03C151.51 90.38 147.03 88.46 137.59 88.89C128.15 89.32 118.05 92.53 114.19 94.68C111.671 96.0645 109.08 97.3162 106.43 98.43C106.43 98.43 102.81 91.03 104.74 76.43C106.67 61.83 113.33 43.15 114.4 41.65C115.47 40.15 123.4 25.27 127.68 30.56" fill="#818CC5"/>
<path d="M127.72 30.57C126.24 26.83 123.66 24.17 119.27 24.66C117.358 24.9805 115.575 25.837 114.13 27.13C107.13 32.77 103.13 41.93 100.3 50.27C96.191 61.9599 94.8391 74.4414 96.35 86.74C97 91.8 99.35 101.5 106.47 98.43C111.22 96.43 114.62 91.01 117.22 86.77C124.533 74.5523 128.761 60.7378 129.54 46.52C129.79 42.72 129.79 35.66 127.77 30.52" fill="#818CC5"/>
<path d="M163.76 55.0199C163.29 54.9299 162.76 54.8599 162.31 54.7799C160.224 54.5422 158.161 54.1376 156.14 53.5699C156.785 55.3362 157.254 57.1617 157.54 59.0199C157.939 62.9271 157.669 66.8738 156.74 70.6899C155.989 74.2271 154.818 77.6615 153.25 80.9199C151.928 83.746 150.269 86.4019 148.31 88.8299L147.82 89.3999C149.831 89.7915 151.813 90.3228 153.75 90.9899C154.07 91.0899 154.53 91.2199 155.09 91.3499C155.46 91.0099 155.82 90.6599 156.17 90.2899C157.58 88.7896 158.848 87.1627 159.96 85.4299C163.031 80.4938 165.043 74.974 165.87 69.2199C166.58 64.3499 166.23 59.2199 163.78 54.9499" fill="#B5BFE1"/>
<path d="M120.63 78.48C118.33 74.48 112.77 70.08 109.1 67.27C108.91 67.1607 108.77 66.9812 108.71 66.77C108.704 66.5806 108.76 66.3945 108.87 66.24C111.19 62.03 112.99 57.24 112.65 52.42C117.606 53.4696 122.736 53.3738 127.65 52.14L126.27 58.66C125.52 62.9282 124.32 67.1049 122.69 71.12C121.76 73.19 120.58 75.24 120.51 77.51L120.63 78.48Z" fill="#F26A30"/>
<path d="M115.13 54.47C114.898 53.7112 114.397 53.063 113.722 52.647C113.046 52.2309 112.242 52.0755 111.46 52.21C110.74 52.4197 110.09 52.8206 109.58 53.37C107.54 55.6651 106.396 58.6194 106.36 61.69C106.28 63.69 106.41 66.76 108.94 67.21C111.47 67.66 113.4 64.58 114.31 62.65C115.444 60.2665 115.794 57.5848 115.31 54.99L115.13 54.47Z" fill="white"/>
<path d="M127.72 30.57C126.24 26.83 123.66 24.17 119.27 24.66C117.358 24.9805 115.575 25.837 114.13 27.13C107.13 32.77 103.13 41.93 100.31 50.27C96.1745 61.9538 94.8053 74.4376 96.31 86.74C96.96 91.8 99.31 101.5 106.43 98.43C111.19 96.43 114.58 91.01 117.18 86.77C124.507 74.5559 128.749 60.7412 129.54 46.52C129.79 42.72 129.79 35.66 127.77 30.52L127.72 30.57ZM126.37 46.66C125.59 59.54 122.25 72.28 115.93 83.32C113.72 87.18 110.3 93.6 106.26 95.46C100.17 98.26 98.2 89.46 97.64 84.81C96.3 73.6 98.1 60.74 101.54 50.07C103.99 42.47 108.11 33.68 114.09 28.54C115.297 27.3779 116.821 26.5986 118.47 26.3C122.2 25.85 124.39 28.3 125.66 31.68C127.32 36.36 126.54 43.24 126.32 46.71L126.37 46.66Z" fill="#B5BFE1"/>
<path d="M55.34 69.85C54.3623 68.7972 53.0659 68.0945 51.65 67.85C50.3061 67.5419 48.901 67.6375 47.6112 68.125C46.3214 68.6125 45.2043 69.47 44.4 70.59C43.5572 71.9128 43.1161 73.4516 43.13 75.02C43.0405 76.5294 43.3877 78.0327 44.13 79.35C44.9338 80.4358 46.0449 81.2555 47.3196 81.703C48.5943 82.1504 49.9739 82.2051 51.28 81.86C52.9396 81.39 54.3914 80.3723 55.3991 78.9724C56.4067 77.5726 56.9111 75.8729 56.83 74.15C56.7912 72.5977 56.251 71.0997 55.29 69.88L55.34 69.85ZM52.29 80.99C51.1193 81.5311 49.8133 81.7089 48.5405 81.5004C47.2678 81.2918 46.0868 80.7065 45.15 79.82C43.26 77.93 43.15 74.44 44.15 72.08C44.6606 70.857 45.5451 69.827 46.6767 69.1372C47.8083 68.4475 49.1291 68.1334 50.45 68.24C51.8632 68.2853 53.2268 68.7713 54.35 69.63C54.977 70.2048 55.4782 70.9031 55.8224 71.6809C56.1666 72.4588 56.3462 73.2994 56.35 74.15C56.4176 75.5535 56.073 76.9462 55.3587 78.1563C54.6443 79.3664 53.5915 80.341 52.33 80.96L52.29 80.99Z" fill="white"/>
<path d="M87.29 47.34C87.29 46.83 87.86 46.2 88.42 45.76C88.54 47.6 88.72 49.32 88.93 50.76C88.2048 49.7001 87.6513 48.5324 87.29 47.3" fill="#F8F0BB"/>
<path d="M90.41 44.02C90.15 38.58 88.12 33.02 84.05 29.72C75.98 23.27 62.38 23.72 55.38 31.57C49.62 38.06 48.87 47.85 51.38 55.83C53.93 64.03 63.76 68.41 71.9 67.21C76.1674 66.5016 80.1352 64.563 83.3167 61.632C86.4981 58.701 88.7549 54.9051 89.81 50.71C90.3449 48.5227 90.5538 46.2684 90.43 44.02" fill="#F26A30"/>
<path d="M83.37 33.86C80.9625 31.2557 77.758 29.525 74.26 28.94C67.56 27.64 60.26 29.88 56.36 35.71C54.2979 38.9481 53.2113 42.7112 53.23 46.55C53.23 50.14 53.79 54.21 55.82 57.25C59.54 62.8 67.16 65.09 73.49 63.44C82.01 61.22 87.49 53.04 87.2 44.44C87.1038 40.6006 85.7593 36.897 83.37 33.89V33.86ZM75.95 61.31C73.0594 62.6519 69.8325 63.0947 66.6873 62.5812C63.5421 62.0677 60.6236 60.6215 58.31 58.43C53.65 53.77 53.48 45.14 55.82 39.33C58.39 32.95 64.64 29.51 71.38 29.82C74.8744 29.937 78.2449 31.1432 81.02 33.27C84.36 35.94 85.75 40.27 86.02 44.44C86.1828 47.9261 85.3144 51.3828 83.5234 54.3779C81.7323 57.3731 79.0981 59.7739 75.95 61.28V61.31Z" fill="white"/>
<path d="M65.19 36.64H76.39C76.047 37.2036 75.6731 37.7477 75.27 38.27H72.27C72.6895 38.7755 72.978 39.3765 73.11 40.02H76.29H76.35C75.64 41.09 75.28 41.63 75.26 41.63H73.19C73.0803 42.3476 72.8103 43.0312 72.4 43.63C71.9242 44.2818 71.2958 44.8071 70.57 45.16C69.6009 45.6475 68.5346 45.9106 67.45 45.93C67.45 46.01 69.6967 48.6767 74.19 53.93H71.19C66.81 48.83 64.62 46.2667 64.62 46.24V44.7V44.64C65.0712 44.6958 65.5254 44.7225 65.98 44.72C68.4267 44.72 69.95 43.9233 70.55 42.33C70.6462 42.1023 70.6938 41.8571 70.69 41.61H64.03C64.77 40.54 65.15 40 65.17 40H70.45C70.065 39.3182 69.4362 38.8073 68.69 38.57C68.1521 38.3845 67.5888 38.2833 67.02 38.27H64.02V38.21C64.73 37.15 65.1 36.61 65.13 36.61" fill="white"/>
<path d="M86.6799 83.41C86.6799 83.15 86.9799 82.82 87.2699 82.6C87.3299 83.55 87.4299 84.44 87.5299 85.21C87.1608 84.6544 86.8745 84.048 86.6799 83.41Z" fill="#F8F0BB"/>
<path d="M88.3001 81.6699C88.2934 80.2721 87.9967 78.8909 87.4286 77.6137C86.8606 76.3365 86.0336 75.1911 85 74.25C80.81 70.9 73.7501 71.11 70.1201 75.25C67.1201 78.62 66.7501 83.7 68.0401 87.84C69.3301 91.98 74.4601 94.37 78.68 93.75C80.8961 93.3817 82.9565 92.3747 84.6085 90.8523C86.2605 89.33 87.4323 87.3586 87.9801 85.18C88.2563 84.0452 88.3641 82.8761 88.3001 81.71" fill="#F26A30"/>
<path d="M84.65 76.4199C83.4021 75.0659 81.7371 74.1683 79.92 73.8699C78.198 73.4791 76.399 73.6035 74.7471 74.2276C73.0952 74.8517 71.6634 75.948 70.63 77.3799C69.5599 79.0581 68.9974 81.0097 69.01 82.9999C68.9059 84.9442 69.3716 86.8766 70.35 88.5599C71.3823 89.9506 72.8078 90.9998 74.4425 91.572C76.0771 92.1442 77.8458 92.2132 79.52 91.7699C81.6482 91.1693 83.5104 89.8658 84.8033 88.0718C86.0961 86.2777 86.7435 84.0989 86.64 81.8899C86.5833 79.8981 85.8815 77.9786 84.64 76.4199H84.65ZM80.79 90.6499C79.289 91.3477 77.6127 91.5778 75.9791 91.3103C74.3455 91.0428 72.8302 90.2901 71.63 89.1499C69.22 86.7299 69.13 82.2599 70.34 79.2399C70.9961 77.672 72.1305 76.3512 73.5814 75.466C75.0323 74.5807 76.7257 74.1761 78.42 74.3099C80.2315 74.3673 81.9798 74.9897 83.42 76.0899C84.2277 76.8264 84.8746 77.7216 85.3203 78.7197C85.766 79.7177 86.0008 80.797 86.01 81.8899C86.0977 83.7003 85.6503 85.4965 84.7238 87.0543C83.7973 88.6121 82.4326 89.8626 80.8 90.6499H80.79Z" fill="white"/>
<path d="M75.2099 77.86H81.0299C80.6799 78.38 80.4899 78.66 80.4499 78.7H78.8899C79.1121 78.9606 79.2636 79.274 79.3299 79.61H80.9799L80.4199 80.44H79.3399C79.2825 80.8005 79.1421 81.1429 78.9299 81.44C78.6704 81.7877 78.3261 82.0631 77.9299 82.24C77.4273 82.4946 76.8733 82.6314 76.3099 82.64C76.3099 82.64 77.4799 84.07 79.8099 86.8H78.2699L74.8599 82.8V82.02C75.0951 82.0541 75.3324 82.0708 75.5699 82.07C76.8399 82.07 77.6299 81.65 77.9499 80.83C77.9925 80.7076 78.0161 80.5795 78.0199 80.45H74.5599L75.1399 79.61H77.8899C77.6858 79.2577 77.3578 78.9939 76.9699 78.87C76.6908 78.769 76.3968 78.715 76.0999 78.71H74.6399C75.0099 78.16 75.1999 77.88 75.2099 77.88" fill="white"/>
<path d="M61.9299 75.7701C61.9299 75.6101 62.0999 75.43 62.2699 75.3C62.2699 75.84 62.3599 76.3501 62.4199 76.7901C62.2108 76.4812 62.0458 76.1446 61.9299 75.7901" fill="#F8F0BB"/>
<path d="M62.86 74.77C62.8544 73.9736 62.6846 73.1868 62.3611 72.459C62.0376 71.7311 61.5675 71.0779 60.98 70.54C59.7382 69.5927 58.1956 69.1266 56.637 69.2277C55.0784 69.3288 53.609 69.9903 52.5 71.09C51.7177 72.0902 51.1989 73.2707 50.991 74.5233C50.7831 75.776 50.8928 77.0608 51.31 78.26C52.06 80.69 54.97 81.98 57.38 81.63C58.6419 81.4219 59.8153 80.8489 60.7553 79.9817C61.6954 79.1145 62.361 77.9911 62.67 76.75C62.8329 76.0966 62.8969 75.4224 62.86 74.75" fill="#F26A30"/>
<path d="M60.78 71.78C60.0631 71.0141 59.1145 70.5046 58.08 70.33C57.0993 70.1056 56.0742 70.1757 55.1331 70.5315C54.1921 70.8873 53.377 71.5129 52.79 72.33C52.1799 73.2851 51.8603 74.3968 51.87 75.53C51.8054 76.6353 52.0699 77.735 52.63 78.69C53.2223 79.4766 54.0336 80.0709 54.9622 80.3982C55.8908 80.7255 56.8954 80.7714 57.85 80.53C59.0613 80.1849 60.1208 79.4415 60.8575 78.4199C61.5942 77.3984 61.965 76.1583 61.91 74.9C61.8792 73.7655 61.4828 72.6712 60.78 71.78ZM58.54 79.89C57.6857 80.2864 56.7317 80.4163 55.8025 80.2629C54.8732 80.1096 54.0117 79.6799 53.33 79.03C51.95 77.66 51.9 75.1 52.59 73.39C52.9624 72.4964 53.6079 71.7434 54.4341 71.2387C55.2603 70.734 56.2249 70.5034 57.19 70.58C58.2204 70.6116 59.2158 70.9609 60.04 71.58C60.5012 71.9975 60.8701 72.5067 61.1233 73.0749C61.3764 73.6432 61.5081 74.258 61.51 74.88C61.5621 75.9146 61.3082 76.9415 60.78 77.8326C60.2518 78.7236 59.4727 79.4393 58.54 79.89Z" fill="white"/>
<path d="M55.4 72.6H58.71C58.6095 72.7663 58.4993 72.9265 58.38 73.08H57.54C57.663 73.2301 57.7456 73.409 57.78 73.6H58.78L58.46 74.07H57.85C57.8154 74.2822 57.7334 74.4839 57.61 74.66C57.4729 74.855 57.2866 75.0103 57.07 75.11C56.7839 75.2529 56.4698 75.3314 56.15 75.34C56.15 75.34 56.81 76.15 58.15 77.7H57.28C55.98 76.2 55.28 75.44 55.28 75.43V75.02H55.68C56.41 75.02 56.86 74.78 57.04 74.31C57.0495 74.2403 57.0495 74.1697 57.04 74.1H55.04C55.26 73.78 55.37 73.62 55.38 73.62H56.94C56.8263 73.4191 56.6404 73.2689 56.42 73.2C56.2624 73.1446 56.0971 73.1142 55.93 73.11H55.05C55.26 72.8 55.37 72.64 55.38 72.64" fill="white"/>
</g>
<defs>
<clipPath id="clip0_2102_60263">
<rect width="213.09" height="174.04" fill="white"/>
</clipPath>
</defs>
</svg>
