<svg width="214" height="198" viewBox="0 0 214 198" fill="none" xmlns="http://www.w3.org/2000/svg">
<path d="M132.05 28.5H43.4999C40.3677 28.5 37.3638 27.2557 35.149 25.0409C32.9342 22.8261 31.6899 19.8222 31.6899 16.69C31.6899 13.5578 32.9342 10.5539 35.149 8.33907C37.3638 6.12427 40.3677 4.88 43.4999 4.88H132.05C135.182 4.88 138.186 6.12427 140.401 8.33907C142.616 10.5539 143.86 13.5578 143.86 16.69C143.86 19.8222 142.616 22.8261 140.401 25.0409C138.186 27.2557 135.182 28.5 132.05 28.5Z" fill="#ECEEF8"/>
<path d="M177.62 52.12H56.09C52.9578 52.12 49.9539 50.8757 47.7391 48.6609C45.5243 46.4461 44.28 43.4422 44.28 40.31C44.28 37.1778 45.5243 34.1739 47.7391 31.9591C49.9539 29.7443 52.9578 28.5 56.09 28.5H177.62C180.752 28.5 183.756 29.7443 185.971 31.9591C188.186 34.1739 189.43 37.1778 189.43 40.31C189.43 43.4422 188.186 46.4461 185.971 48.6609C183.756 50.8757 180.752 52.12 177.62 52.12Z" fill="#ECEEF8"/>
<path d="M163.73 121.98H42.16C40.5808 122.026 39.0085 121.755 37.536 121.182C36.0636 120.609 34.721 119.747 33.5878 118.647C32.4546 117.546 31.5537 116.229 30.9385 114.774C30.3233 113.319 30.0063 111.755 30.0063 110.175C30.0063 108.595 30.3233 107.031 30.9385 105.576C31.5537 104.121 32.4546 102.804 33.5878 101.703C34.721 100.603 36.0636 99.7405 37.536 99.1679C39.0085 98.5954 40.5808 98.324 42.16 98.37H163.73C165.309 98.324 166.881 98.5954 168.354 99.1679C169.826 99.7405 171.169 100.603 172.302 101.703C173.435 102.804 174.336 104.121 174.951 105.576C175.567 107.031 175.884 108.595 175.884 110.175C175.884 111.755 175.567 113.319 174.951 114.774C174.336 116.229 173.435 117.546 172.302 118.647C171.169 119.747 169.826 120.609 168.354 121.182C166.881 121.755 165.309 122.026 163.73 121.98Z" fill="#ECEEF8"/>
<path d="M163.73 75.73H11.81C10.2308 75.776 8.65849 75.5046 7.18607 74.932C5.71365 74.3595 4.37107 73.4973 3.23782 72.3965C2.10458 71.2958 1.2037 69.9789 0.58852 68.5237C-0.0266583 67.0686 -0.343628 65.5048 -0.343628 63.925C-0.343628 62.3452 -0.0266583 60.7814 0.58852 59.3262C1.2037 57.8711 2.10458 56.5542 3.23782 55.4534C4.37107 54.3527 5.71365 53.4905 7.18607 52.9179C8.65849 52.3454 10.2308 52.074 11.81 52.12H163.73C165.309 52.074 166.881 52.3454 168.354 52.9179C169.826 53.4905 171.169 54.3527 172.302 55.4534C173.435 56.5542 174.336 57.8711 174.951 59.3262C175.567 60.7814 175.884 62.3452 175.884 63.925C175.884 65.5048 175.567 67.0686 174.951 68.5237C174.336 69.9789 173.435 71.2958 172.302 72.3965C171.169 73.4973 169.826 74.3595 168.354 74.932C166.881 75.5046 165.309 75.776 163.73 75.73Z" fill="#ECEEF8"/>
<path d="M156.11 145.48H72.3C69.1678 145.48 66.1639 144.236 63.9491 142.021C61.7343 139.806 60.49 136.802 60.49 133.67C60.49 130.538 61.7343 127.534 63.9491 125.319C66.1639 123.104 69.1678 121.86 72.3 121.86H156.11C159.242 121.86 162.246 123.104 164.461 125.319C166.676 127.534 167.92 130.538 167.92 133.67C167.92 136.802 166.676 139.806 164.461 142.021C162.246 144.236 159.242 145.48 156.11 145.48Z" fill="#ECEEF8"/>
<path d="M201.65 98.37H56.09C52.9578 98.37 49.9539 97.1257 47.7391 94.9109C45.5243 92.6961 44.28 89.6922 44.28 86.56C44.28 83.4278 45.5243 80.4239 47.7391 78.2091C49.9539 75.9943 52.9578 74.75 56.09 74.75H201.65C204.782 74.75 207.786 75.9943 210.001 78.2091C212.216 80.4239 213.46 83.4278 213.46 86.56C213.46 89.6922 212.216 92.6961 210.001 94.9109C207.786 97.1257 204.782 98.37 201.65 98.37Z" fill="#ECEEF8"/>
<path d="M152.29 17.36C151.436 17.36 150.6 17.1066 149.89 16.6319C149.179 16.1572 148.626 15.4825 148.299 14.6932C147.972 13.9038 147.886 13.0352 148.053 12.1972C148.22 11.3592 148.631 10.5894 149.235 9.98527C149.839 9.38111 150.609 8.96967 151.447 8.80298C152.285 8.63629 153.154 8.72184 153.943 9.04881C154.733 9.37578 155.407 9.92949 155.882 10.6399C156.357 11.3503 156.61 12.1856 156.61 13.04C156.61 14.1857 156.155 15.2845 155.345 16.0947C154.535 16.9048 153.436 17.36 152.29 17.36ZM152.29 11.36C151.959 11.36 151.636 11.4582 151.361 11.6421C151.086 11.8261 150.872 12.0875 150.746 12.3932C150.62 12.699 150.588 13.0353 150.653 13.3595C150.718 13.6837 150.878 13.9812 151.113 14.2144C151.347 14.4475 151.646 14.6058 151.97 14.6691C152.295 14.7324 152.631 14.6979 152.936 14.57C153.241 14.442 153.501 14.2264 153.683 13.9505C153.866 13.6745 153.962 13.3507 153.96 13.02C153.955 12.5815 153.776 12.1628 153.463 11.8556C153.15 11.5483 152.729 11.3773 152.29 11.38V11.36Z" fill="#818CC5"/>
<path d="M183.13 117.97C182.276 117.97 181.44 117.717 180.73 117.242C180.019 116.767 179.466 116.093 179.139 115.303C178.812 114.514 178.726 113.645 178.893 112.807C179.06 111.969 179.471 111.199 180.075 110.595C180.679 109.991 181.449 109.58 182.287 109.413C183.125 109.246 183.994 109.332 184.783 109.659C185.573 109.986 186.247 110.539 186.722 111.25C187.197 111.96 187.45 112.796 187.45 113.65C187.447 114.795 186.991 115.892 186.182 116.702C185.372 117.511 184.275 117.967 183.13 117.97ZM183.13 111.97C182.8 111.97 182.477 112.068 182.202 112.251C181.928 112.435 181.713 112.696 181.587 113.001C181.461 113.306 181.428 113.642 181.492 113.966C181.556 114.29 181.716 114.587 181.949 114.821C182.183 115.054 182.48 115.213 182.804 115.278C183.128 115.342 183.464 115.309 183.769 115.183C184.074 115.056 184.335 114.842 184.518 114.568C184.702 114.293 184.8 113.97 184.8 113.64C184.8 113.421 184.757 113.204 184.673 113.002C184.589 112.8 184.465 112.617 184.31 112.463C184.155 112.308 183.971 112.186 183.768 112.103C183.566 112.021 183.349 111.979 183.13 111.98V111.97Z" fill="#BFD7E2"/>
<path d="M75.12 150.14C74.2656 150.14 73.4304 149.887 72.72 149.412C72.0096 148.937 71.4559 148.263 71.1289 147.473C70.8019 146.684 70.7164 145.815 70.8831 144.977C71.0497 144.139 71.4612 143.369 72.0653 142.765C72.6695 142.161 73.4393 141.75 74.2773 141.583C75.1153 141.416 75.9839 141.502 76.7732 141.829C77.5626 142.156 78.2373 142.71 78.712 143.42C79.1867 144.13 79.44 144.966 79.44 145.82C79.44 146.966 78.9849 148.065 78.1748 148.875C77.3646 149.685 76.2658 150.14 75.12 150.14ZM75.12 144.14C74.7893 144.14 74.4661 144.238 74.1912 144.422C73.9164 144.606 73.7023 144.868 73.5762 145.173C73.4501 145.479 73.4177 145.815 73.4829 146.139C73.5482 146.464 73.7082 146.761 73.9428 146.994C74.1773 147.228 74.4758 147.386 74.8004 147.449C75.125 147.512 75.4611 147.478 75.7661 147.35C76.0711 147.222 76.3312 147.006 76.5135 146.731C76.6958 146.455 76.792 146.131 76.79 145.8C76.7848 145.361 76.6062 144.943 76.2933 144.636C75.9804 144.328 75.5586 144.157 75.12 144.16V144.14Z" fill="#818CC5"/>
<path d="M88.36 8.63996C87.5077 8.63009 86.6775 8.36837 85.9737 7.88773C85.2699 7.40708 84.7239 6.72899 84.4046 5.9388C84.0853 5.14861 84.0069 4.28161 84.1792 3.44694C84.3515 2.61226 84.7668 1.84719 85.3729 1.24802C85.979 0.648849 86.7488 0.242345 87.5854 0.0796697C88.422 -0.0830061 89.288 0.00541618 90.0745 0.333805C90.861 0.662193 91.5327 1.21587 92.0052 1.92517C92.4778 2.63447 92.7299 3.46768 92.73 4.31996C92.7273 5.46488 92.2713 6.56216 91.4617 7.37174C90.6522 8.18133 89.5549 8.63732 88.41 8.63996H88.36ZM88.41 2.63996C88.0797 2.63996 87.7568 2.7379 87.4822 2.92141C87.2075 3.10491 86.9935 3.36572 86.8671 3.67088C86.7407 3.97603 86.7076 4.31181 86.7721 4.63576C86.8365 4.95971 86.9955 5.25727 87.2291 5.49083C87.4626 5.72438 87.7602 5.88343 88.0842 5.94787C88.4081 6.01231 88.7439 5.97923 89.049 5.85284C89.3542 5.72644 89.615 5.51239 89.7985 5.23776C89.982 4.96313 90.08 4.64025 90.08 4.30996C90.0787 4.08722 90.0329 3.86698 89.9453 3.6622C89.8577 3.45743 89.73 3.27225 89.5697 3.11757C89.4094 2.96289 89.2199 2.84183 89.0121 2.76152C88.8043 2.68122 88.5826 2.64329 88.36 2.64996L88.41 2.63996Z" fill="#818CC5"/>
<path d="M37.06 13.3599H34.52V10.8199H31.87V13.3599H29.33V16.0099H31.87V18.5599H34.52V16.0099H37.06V13.3599Z" fill="#818CC5"/>
<path d="M32.75 89.26H30.2V86.71H27.55V89.26H25.01V91.91H27.55V94.45H30.2V91.91H32.75V89.26Z" fill="#818CC5"/>
<path d="M126.64 57.0199C127.07 54.5899 127.36 52.3499 127.55 50.2999L127.67 50.3699C128.25 50.6999 129.33 51.5999 129.33 52.2799C129.33 52.9599 128.05 54.9499 126.64 57.0199Z" fill="#F8F0BB"/>
<path d="M87.4399 52.3C87.4399 51.79 88.0099 51.17 88.5799 50.73C88.6899 52.57 88.8799 54.28 89.0899 55.73C88.3685 54.6629 87.8122 53.4931 87.4399 52.26" fill="#F8F0BB"/>
<path d="M78.05 167.93C78.0478 167.624 78.095 167.32 78.19 167.03C78.2528 166.84 78.3331 166.655 78.43 166.48H88.43C88.857 166.438 89.2835 166.564 89.62 166.83C89.8677 167.102 89.9972 167.462 89.98 167.83C89.9831 168.133 89.9323 168.435 89.83 168.72C89.7692 168.914 89.6888 169.102 89.59 169.28H85.53V178.89H82.53V169.28H79.63C79.2014 169.322 78.7735 169.192 78.44 168.92C78.1959 168.646 78.0701 168.286 78.09 167.92" fill="#F26A30"/>
<path d="M93.92 173.5H97.07L96.66 172.4L96.2 171.22C96.06 170.84 95.92 170.49 95.8 170.22C95.68 169.95 95.57 169.66 95.49 169.5C95.42 169.67 95.32 169.91 95.2 170.22L94.8 171.22C94.66 171.6 94.51 171.99 94.35 172.39C94.2 172.78 94.05 173.16 93.92 173.52V173.5ZM88.73 178.92C88.98 178.24 89.29 177.45 89.65 176.55L90.82 173.69C91.24 172.69 91.68 171.69 92.13 170.6C92.58 169.51 93.03 168.53 93.47 167.6C93.6365 167.162 93.9288 166.783 94.31 166.51C94.7085 166.285 95.1628 166.177 95.62 166.2C95.8261 166.196 96.0317 166.223 96.23 166.28C96.4143 166.322 96.595 166.379 96.77 166.45C96.9015 166.503 97.0285 166.567 97.15 166.64L97.33 166.75C97.51 167.05 97.75 167.53 98.05 168.18C98.35 168.83 98.67 169.57 99.05 170.38L100.14 172.95C100.51 173.85 100.86 174.69 101.14 175.5C101.42 176.31 101.74 177.01 101.98 177.64L102.49 178.97H99.15C99.02 178.62 98.87 178.23 98.71 177.79C98.55 177.35 98.37 176.85 98.14 176.27H92.85C92.66 176.78 92.49 177.27 92.34 177.67C92.19 178.07 92.03 178.53 91.86 178.97L88.73 178.92Z" fill="#F26A30"/>
<path d="M103.09 177.76L104.34 175.36C104.493 175.47 104.657 175.564 104.83 175.64C105.153 175.793 105.487 175.92 105.83 176.02C106.272 176.165 106.723 176.282 107.18 176.37C107.723 176.477 108.276 176.531 108.83 176.53C109.22 176.539 109.609 176.502 109.99 176.42C110.228 176.378 110.456 176.29 110.66 176.16C110.793 176.068 110.897 175.939 110.96 175.79C111.008 175.655 111.031 175.513 111.03 175.37C111.031 175.231 111 175.094 110.939 174.969C110.879 174.844 110.79 174.735 110.68 174.65C110.281 174.402 109.828 174.251 109.36 174.21L107.51 173.88C107.018 173.793 106.533 173.669 106.06 173.51C105.581 173.365 105.132 173.138 104.73 172.84C104.338 172.556 104.017 172.187 103.79 171.76C103.536 171.262 103.412 170.708 103.43 170.15C103.425 169.611 103.53 169.076 103.74 168.58C103.953 168.091 104.274 167.656 104.68 167.31C105.156 166.922 105.703 166.63 106.29 166.45C107.029 166.225 107.798 166.117 108.57 166.13C109.118 166.124 109.667 166.157 110.21 166.23C110.619 166.285 111.023 166.368 111.42 166.48C111.76 166.58 112.03 166.67 112.25 166.76C112.405 166.83 112.555 166.91 112.7 167C112.924 167.128 113.123 167.294 113.29 167.49C113.475 167.695 113.575 167.963 113.57 168.24C113.57 168.442 113.533 168.642 113.46 168.83C113.392 169.009 113.304 169.18 113.2 169.34C113.106 169.489 112.995 169.626 112.87 169.75C112.75 169.87 112.65 169.95 112.57 170.02C112.401 169.865 112.217 169.728 112.02 169.61C111.746 169.442 111.454 169.305 111.15 169.2C110.771 169.07 110.383 168.967 109.99 168.89C109.536 168.799 109.073 168.756 108.61 168.76C108.233 168.749 107.856 168.789 107.49 168.88C107.263 168.939 107.049 169.041 106.86 169.18C106.731 169.282 106.637 169.422 106.59 169.58C106.553 169.71 106.532 169.845 106.53 169.98C106.52 170.086 106.52 170.193 106.53 170.3C106.571 170.417 106.648 170.519 106.75 170.59C106.895 170.701 107.057 170.789 107.23 170.85C107.506 170.95 107.791 171.027 108.08 171.08L110 171.46C110.609 171.578 111.208 171.745 111.79 171.96C112.255 172.124 112.689 172.367 113.07 172.68C113.405 172.949 113.676 173.291 113.86 173.68C114.051 174.142 114.143 174.64 114.13 175.14C114.157 175.718 114.042 176.294 113.795 176.817C113.547 177.34 113.175 177.795 112.71 178.14C111.531 178.927 110.126 179.307 108.71 179.22C107.982 179.224 107.255 179.157 106.54 179.02C105.953 178.902 105.375 178.745 104.81 178.55C104.395 178.413 103.991 178.246 103.6 178.05C103.408 177.96 103.224 177.853 103.05 177.73" fill="#F26A30"/>
<path d="M116.17 178.92V167.84C116.157 167.65 116.191 167.46 116.267 167.286C116.344 167.112 116.461 166.959 116.61 166.84C116.954 166.626 117.355 166.521 117.76 166.54C118.074 166.535 118.387 166.576 118.69 166.66L119.2 166.83V171.45L120.14 170.45L121.14 169.33L122.14 168.26C122.48 167.92 122.79 167.63 123.06 167.37C123.3 167.164 123.557 166.98 123.83 166.82C124.16 166.637 124.533 166.547 124.91 166.56C125.17 166.555 125.43 166.589 125.68 166.66C125.882 166.722 126.079 166.799 126.27 166.89C126.413 166.968 126.548 167.062 126.67 167.17C126.755 167.245 126.835 167.325 126.91 167.41L126.49 167.82C126.27 168.04 126.01 168.3 125.72 168.61L124.72 169.61L123.72 170.61L122.79 171.61L122.11 172.35C122.61 172.89 123.11 173.43 123.56 173.96C124.01 174.49 124.46 175.02 124.89 175.55C125.32 176.08 125.75 176.64 126.16 177.21C126.57 177.78 127.01 178.36 127.44 178.99H123.73C123.42 178.56 123.06 178.11 122.67 177.62C122.28 177.13 121.89 176.62 121.48 176.15C121.07 175.68 120.67 175.15 120.26 174.75C119.85 174.35 119.47 173.9 119.13 173.57V178.99L116.17 178.92Z" fill="#F26A30"/>
<path d="M128.86 178.92V168.2C128.86 167.05 129.46 166.48 130.66 166.48H136.87C137.297 166.442 137.722 166.567 138.06 166.83C138.3 167.106 138.426 167.464 138.41 167.83C138.413 168.133 138.362 168.435 138.26 168.72C138.201 168.914 138.124 169.101 138.03 169.28H131.89V171.22H136.63C137.054 171.18 137.477 171.305 137.81 171.57C137.933 171.705 138.028 171.862 138.09 172.034C138.152 172.206 138.179 172.388 138.17 172.57C138.174 172.876 138.123 173.181 138.02 173.47C137.959 173.663 137.882 173.85 137.79 174.03H131.89V176.03H138.31V178.86L128.86 178.92Z" fill="#F26A30"/>
<path d="M139.3 167.71C139.286 167.532 139.316 167.353 139.388 167.189C139.459 167.025 139.57 166.881 139.71 166.77C140.004 166.57 140.354 166.468 140.71 166.48C141.001 166.473 141.292 166.513 141.57 166.6C141.722 166.64 141.87 166.697 142.01 166.77L142.73 167.84L143.65 169.19L144.58 170.54C144.88 170.98 145.14 171.34 145.36 171.63C145.58 171.34 145.81 171.03 146.04 170.69C146.27 170.35 146.52 170 146.75 169.63C146.98 169.26 147.22 168.91 147.44 168.56C147.66 168.21 147.88 167.89 148.06 167.56C148.14 167.46 148.22 167.34 148.33 167.21C148.442 167.066 148.577 166.941 148.73 166.84C149.098 166.58 149.54 166.447 149.99 166.46C150.199 166.456 150.408 166.483 150.61 166.54C150.787 166.592 150.961 166.656 151.13 166.73C151.262 166.788 151.386 166.862 151.5 166.95C151.6 167.02 151.66 167.08 151.7 167.11C151.6 167.32 151.45 167.59 151.24 167.94C151.03 168.29 150.79 168.66 150.51 169.1C150.23 169.54 149.92 169.98 149.59 170.47C149.26 170.96 148.94 171.47 148.59 171.89C148.24 172.31 147.95 172.8 147.59 173.21L146.78 174.31V178.9H143.78V174.31C143.51 173.98 143.21 173.61 142.9 173.2C142.59 172.79 142.28 172.41 141.99 172.03L141.18 170.97C140.933 170.65 140.733 170.38 140.58 170.16C140.46 169.99 140.33 169.8 140.17 169.6C140.018 169.391 139.878 169.174 139.75 168.95C139.627 168.738 139.52 168.518 139.43 168.29C139.353 168.099 139.309 167.896 139.3 167.69" fill="#F26A30"/>
<path d="M78.73 196.2L79.99 193.8C80.1415 193.907 80.3021 194.001 80.47 194.08C80.7945 194.229 81.1285 194.356 81.47 194.46C81.9134 194.601 82.3641 194.717 82.82 194.81C83.3638 194.914 83.9164 194.964 84.47 194.96C84.8592 194.971 85.2484 194.937 85.63 194.86C85.8672 194.814 86.0942 194.726 86.3 194.6C86.4339 194.504 86.538 194.372 86.6 194.22C86.6482 194.085 86.6719 193.943 86.67 193.8C86.6712 193.663 86.6401 193.527 86.5793 193.403C86.5185 193.28 86.4297 193.173 86.32 193.09C85.92 192.841 85.4685 192.687 85 192.64L83.15 192.32C82.6581 192.233 82.1734 192.109 81.7 191.95C81.2401 191.799 80.8054 191.579 80.41 191.3C80.0209 191.014 79.7 190.645 79.47 190.22C79.2156 189.719 79.0918 189.162 79.11 188.6C79.1053 188.064 79.2109 187.533 79.42 187.04C79.6302 186.549 79.9521 186.114 80.36 185.77C80.8334 185.378 81.3809 185.085 81.97 184.91C82.7076 184.681 83.4777 184.572 84.25 184.59C84.7983 184.584 85.3464 184.617 85.89 184.69C86.2987 184.745 86.703 184.828 87.1 184.94C87.383 185.013 87.6604 185.107 87.93 185.22C88.0849 185.29 88.2352 185.37 88.38 185.46C88.6035 185.588 88.8031 185.754 88.97 185.95C89.1559 186.155 89.2562 186.423 89.25 186.7C89.2492 186.902 89.212 187.102 89.14 187.29C89.0735 187.47 88.9863 187.641 88.88 187.8C88.7862 187.949 88.6754 188.087 88.55 188.21L88.25 188.48C88.0836 188.322 87.899 188.184 87.7 188.07C87.4258 187.902 87.134 187.765 86.83 187.66C86.4553 187.527 86.0708 187.423 85.68 187.35C85.2222 187.26 84.7565 187.216 84.29 187.22C83.9129 187.209 83.5361 187.249 83.17 187.34C82.9413 187.395 82.7267 187.497 82.54 187.64C82.4109 187.742 82.3167 187.882 82.27 188.04C82.2326 188.17 82.2124 188.305 82.21 188.44C82.1996 188.546 82.1996 188.654 82.21 188.76C82.2537 188.876 82.3301 188.977 82.43 189.05C82.5754 189.161 82.7374 189.249 82.91 189.31C83.1863 189.41 83.4707 189.487 83.76 189.54L85.68 189.92C86.2889 190.035 86.8876 190.198 87.47 190.41C87.934 190.581 88.3665 190.828 88.75 191.14C89.088 191.407 89.3586 191.749 89.54 192.14C89.7299 192.599 89.8219 193.093 89.81 193.59C89.8391 194.168 89.7247 194.745 89.477 195.268C89.2292 195.792 88.8558 196.246 88.39 196.59C87.2092 197.374 85.8044 197.75 84.39 197.66C83.6617 197.669 82.9344 197.602 82.22 197.46C81.6326 197.35 81.0543 197.196 80.49 197C80.0783 196.854 79.6744 196.687 79.28 196.5C79.0897 196.406 78.906 196.299 78.73 196.18" fill="#F26A30"/>
<path d="M95.88 191.93H99.03L98.62 190.84C98.46 190.43 98.31 190.04 98.17 189.65L97.76 188.65C97.63 188.33 97.53 188.09 97.45 187.93L97.17 188.65C97.04 188.95 96.91 189.3 96.77 189.65C96.63 190 96.47 190.42 96.32 190.82C96.17 191.22 96.01 191.59 95.88 191.94V191.93ZM90.65 197.37C90.91 196.69 91.21 195.9 91.58 195C91.95 194.1 92.33 193.14 92.75 192.13C93.17 191.12 93.6 190.13 94.05 189.04C94.5 187.95 94.95 186.98 95.39 186.04C95.5539 185.6 95.8467 185.22 96.23 184.95C96.6286 184.725 97.0828 184.617 97.54 184.64C97.7455 184.638 97.9504 184.661 98.15 184.71C98.3347 184.755 98.5153 184.815 98.69 184.89C98.8242 184.937 98.9519 185.001 99.07 185.08L99.25 185.19C99.5192 185.651 99.7596 186.129 99.97 186.62C100.26 187.27 100.59 188.01 100.97 188.82L102.06 191.39C102.43 192.28 102.78 193.13 103.06 193.94C103.34 194.75 103.66 195.45 103.9 196.07L104.41 197.41H101.07C100.94 197.06 100.79 196.66 100.64 196.23C100.49 195.8 100.29 195.29 100.06 194.7H94.78C94.58 195.21 94.41 195.7 94.26 196.11L93.79 197.41L90.65 197.37Z" fill="#F26A30"/>
<path d="M105.73 197.36V186.64C105.73 185.49 106.33 184.91 107.53 184.91H113.31C113.521 184.889 113.734 184.91 113.936 184.972C114.139 185.033 114.327 185.135 114.49 185.27C114.614 185.404 114.71 185.561 114.772 185.733C114.834 185.905 114.86 186.088 114.85 186.27C114.857 186.576 114.81 186.881 114.71 187.17C114.647 187.362 114.564 187.546 114.46 187.72H108.76V189.84H112.84C113.267 189.799 113.693 189.925 114.03 190.19C114.151 190.325 114.245 190.483 114.305 190.655C114.365 190.827 114.39 191.008 114.38 191.19C114.381 191.492 114.334 191.793 114.24 192.08C114.175 192.273 114.094 192.46 114 192.64H108.76V197.32L105.73 197.36Z" fill="#F26A30"/>
<path d="M116.52 197.36V186.64C116.52 185.49 117.12 184.91 118.32 184.91H124.53C124.959 184.869 125.386 184.998 125.72 185.27C125.963 185.545 126.089 185.904 126.07 186.27C126.074 186.577 126.023 186.881 125.92 187.17C125.862 187.36 125.785 187.545 125.69 187.72H119.55V189.66H124.29C124.501 189.639 124.714 189.66 124.916 189.722C125.119 189.783 125.307 189.885 125.47 190.02C125.593 190.155 125.688 190.312 125.75 190.484C125.812 190.656 125.839 190.838 125.83 191.02C125.833 191.326 125.782 191.631 125.68 191.92C125.621 192.11 125.544 192.295 125.45 192.47H119.55V194.47H125.97V197.3L116.52 197.36Z" fill="#F26A30"/>
<path d="M126.96 186.37C126.956 186.063 127.007 185.759 127.11 185.47C127.173 185.277 127.254 185.089 127.35 184.91H137.35C137.779 184.868 138.206 184.997 138.54 185.27C138.783 185.545 138.909 185.904 138.89 186.27C138.892 186.576 138.845 186.879 138.75 187.17C138.685 187.36 138.605 187.544 138.51 187.72H134.45V197.34H131.45V187.74H128.55C128.338 187.763 128.124 187.744 127.92 187.684C127.716 187.624 127.525 187.524 127.36 187.39C127.237 187.255 127.142 187.098 127.08 186.926C127.018 186.754 126.991 186.572 127 186.39" fill="#F26A30"/>
<path d="M139.06 186.14C139.047 185.963 139.077 185.786 139.149 185.624C139.22 185.462 139.331 185.319 139.47 185.21C139.761 185.002 140.113 184.897 140.47 184.91C140.762 184.901 141.054 184.945 141.33 185.04C141.483 185.078 141.631 185.135 141.77 185.21C141.96 185.48 142.19 185.84 142.48 186.27C142.77 186.7 143.07 187.16 143.4 187.62L144.33 188.98C144.63 189.42 144.89 189.78 145.11 190.07C145.33 189.78 145.56 189.46 145.79 189.13C146.02 188.8 146.27 188.43 146.5 188.07C146.73 187.71 146.97 187.35 147.19 187C147.41 186.65 147.62 186.32 147.81 186C147.88 185.89 147.97 185.78 148.07 185.64C148.183 185.503 148.314 185.382 148.46 185.28C148.829 185.022 149.27 184.886 149.72 184.89C149.93 184.89 150.139 184.92 150.34 184.98C150.518 185.03 150.692 185.093 150.86 185.17C150.99 185.231 151.114 185.304 151.23 185.39C151.298 185.437 151.362 185.491 151.42 185.55C151.289 185.833 151.139 186.107 150.97 186.37C150.77 186.72 150.52 187.1 150.24 187.53L149.32 188.91L148.32 190.33L147.37 191.65L146.56 192.75V197.34H143.56V192.75L142.67 191.64L141.76 190.47C141.48 190.09 141.21 189.73 140.96 189.41C140.71 189.09 140.51 188.82 140.36 188.6L139.95 188.04C139.8 187.83 139.66 187.61 139.53 187.39C139.403 187.18 139.296 186.959 139.21 186.73C139.127 186.537 139.083 186.33 139.08 186.12" fill="#F26A30"/>
<path d="M106.91 15.14C96.2599 26.54 79.2799 35.84 61.1099 39.84C61.1099 41.06 61.1099 47.78 60.9299 78.78C60.7499 120.12 100.1 140.33 106.21 143.43C112.13 140.71 151.97 120.53 152.21 79.18C152.35 48.18 152.38 41.46 152.38 40.25C134.25 36.11 117.5 26.61 106.96 15.12" fill="white"/>
<path d="M106.81 19.62C95.81 29.69 80.64 37.62 63.92 41.91L63.73 78.84C63.65 95.71 70.36 110.98 83.66 124.21C90.3328 130.798 97.9415 136.364 106.24 140.73L106.88 140.4V19.71L106.78 19.62" fill="#D8DDF0"/>
<path d="M106.91 19.71V140.35C115.003 136.104 122.443 130.716 129 124.35C142.42 111.23 149.26 96.03 149.33 79.15L149.5 42.27C132.87 37.84 117.78 29.84 106.91 19.71Z" fill="#B5BFE1"/>
<path d="M86.3 65.9599L106.17 60.8999C106.58 60.7949 107.01 60.7949 107.42 60.8999L126.89 65.8999C127.426 66.0394 127.9 66.3526 128.238 66.7906C128.577 67.2286 128.76 67.7664 128.76 68.3199V79.6299C128.762 80.026 128.669 80.4168 128.49 80.7699C126.96 83.7699 119.11 97.7699 106.39 97.7699C93.6701 97.7699 86.2401 84.9599 84.7101 82.0699C84.5205 81.7054 84.421 81.3008 84.4201 80.8899V68.3799C84.4187 67.8247 84.603 67.2849 84.9437 66.8464C85.2843 66.408 85.7617 66.0959 86.3 65.9599Z" fill="#818CC5"/>
<path d="M127.24 67.6599L134.91 64.8699C135.991 64.4703 137.179 64.4703 138.26 64.8699C139.075 65.0943 139.802 65.5603 140.347 66.2066C140.891 66.8528 141.227 67.649 141.31 68.4899C141.357 69.3255 141.185 70.1588 140.812 70.9077C140.438 71.6565 139.876 72.295 139.18 72.7599L127.65 80.6899" stroke="#818CC5" stroke-width="1.37" stroke-miterlimit="10"/>
<path d="M86.2199 68.4299L78.5499 65.6399C77.469 65.2403 76.2809 65.2403 75.1999 65.6399C74.3945 65.8729 73.6778 66.3426 73.1428 66.9882C72.6078 67.6337 72.2793 68.4253 72.1999 69.2599C72.1518 70.0956 72.3231 70.9293 72.6968 71.6784C73.0704 72.4274 73.6334 73.0657 74.3299 73.5299L85.8599 81.4599" stroke="#818CC5" stroke-width="1.37" stroke-miterlimit="10"/>
<path d="M112.79 79.84L104.44 88.25L100.02 83.84L98.12 85.74L103.49 91.11C103.761 91.3604 104.121 91.4934 104.49 91.48C104.843 91.4845 105.183 91.3518 105.44 91.11L116.27 79.84H112.79Z" fill="white"/>
</svg>
